<svg xmlns="http://www.w3.org/2000/svg" data-name="Layer 1" viewBox="0 0 100 125" x="0px" y="0px"><path d="M93.924,7.585H6.076A1.075,1.075,0,0,0,5,8.661V91.339a1.075,1.075,0,0,0,1.075,1.076H93.924A1.075,1.075,0,0,0,95,91.339V8.661A1.075,1.075,0,0,0,93.924,7.585ZM92.848,9.737V21.594H7.152V9.737ZM7.152,23.745h23.01V90.263H7.152ZM32.314,90.263V23.745H92.848V90.263Zm32.907-74.6A1.075,1.075,0,0,1,66.3,14.59H88.2a1.076,1.076,0,1,1,0,2.151H66.3A1.076,1.076,0,0,1,65.221,15.665Zm-8.537,0a1.075,1.075,0,0,1,1.075-1.075h2.723a1.076,1.076,0,0,1,0,2.151H57.759A1.075,1.075,0,0,1,56.684,15.665Zm-7.671,0a1.075,1.075,0,0,1,1.075-1.075h2.723a1.076,1.076,0,0,1,0,2.151H50.088A1.075,1.075,0,0,1,49.013,15.665ZM89.056,27.423H37.961A1.076,1.076,0,0,0,36.885,28.5V85.51a1.076,1.076,0,0,0,1.076,1.076h51.1a1.075,1.075,0,0,0,1.075-1.076V28.5A1.075,1.075,0,0,0,89.056,27.423ZM87.98,29.574V55.929H39.037V29.574ZM39.037,84.434V58.08H87.98V84.434ZM52.348,51.97a9.143,9.143,0,0,0,0-18.286h0a9.143,9.143,0,0,0,0,18.286Zm6.909-10.219H53.424V35.918A7.008,7.008,0,0,1,59.257,41.751Zm-7.985-5.833v6.909A1.076,1.076,0,0,0,52.348,43.9h6.909a6.992,6.992,0,1,1-7.985-7.985Zm13.581.321a1.075,1.075,0,0,1,1.075-1.076h17.48a1.076,1.076,0,1,1,0,2.151H65.928A1.075,1.075,0,0,1,64.853,36.239Zm19.631,6.588A1.076,1.076,0,0,1,83.408,43.9h-2.89a1.076,1.076,0,0,1,0-2.152h2.89A1.076,1.076,0,0,1,84.484,42.827ZM64.853,49.416a1.075,1.075,0,0,1,1.075-1.076h17.48a1.076,1.076,0,1,1,0,2.151H65.928A1.075,1.075,0,0,1,64.853,49.416Zm0-6.589a1.075,1.075,0,0,1,1.075-1.076H76.753a1.076,1.076,0,0,1,0,2.152H65.928A1.075,1.075,0,0,1,64.853,42.827ZM80.047,61.394a4.488,4.488,0,0,0-3.9,6.711l-6.58,6.238a4.478,4.478,0,0,0-5.059.144l-4-3.379a4.493,4.493,0,1,0-8.049,0l-4,3.379a4.5,4.5,0,1,0,1.39,1.642l4-3.379a4.478,4.478,0,0,0,5.269,0l4,3.379a4.493,4.493,0,1,0,7.929-.225l6.58-6.237a4.492,4.492,0,1,0,2.424-8.273Zm-34.22,19.07a2.342,2.342,0,1,1,2.341-2.341A2.343,2.343,0,0,1,45.827,80.464Zm8.314-11.35a2.342,2.342,0,1,1,2.342,2.341A2.345,2.345,0,0,1,54.141,69.114Zm13,11.35a2.342,2.342,0,1,1,2.341-2.341A2.344,2.344,0,0,1,67.139,80.464ZM80.047,68.228a2.342,2.342,0,1,1,2.341-2.341A2.343,2.343,0,0,1,80.047,68.228Zm-38.713-6.8a1.075,1.075,0,0,1,1.076-1.075h6.319a1.076,1.076,0,1,1,0,2.151H42.41A1.076,1.076,0,0,1,41.334,61.424Zm0,5.244a1.075,1.075,0,0,1,1.076-1.075h6.319a1.076,1.076,0,1,1,0,2.151H42.41A1.076,1.076,0,0,1,41.334,66.668Zm-14.277-39.8H10.384a1.076,1.076,0,0,0-1.076,1.076v6.723a1.075,1.075,0,0,0,1.076,1.075H27.057a1.075,1.075,0,0,0,1.076-1.075V27.944A1.076,1.076,0,0,0,27.057,26.868Zm-15.6,6.723V29.019H25.982v4.572Zm16.673,5.916a1.076,1.076,0,0,1-1.076,1.076H10.384a1.076,1.076,0,0,1,0-2.152H27.057A1.076,1.076,0,0,1,28.133,39.507Zm0,4.841a1.075,1.075,0,0,1-1.076,1.075H10.384a1.076,1.076,0,1,1,0-2.151H27.057A1.076,1.076,0,0,1,28.133,44.348Zm0,4.84a1.076,1.076,0,0,1-1.076,1.076H10.384a1.076,1.076,0,1,1,0-2.151H27.057A1.075,1.075,0,0,1,28.133,49.188Zm0,9.681a1.076,1.076,0,0,1-1.076,1.076H17.119a1.076,1.076,0,0,1,0-2.151h9.938A1.075,1.075,0,0,1,28.133,58.869Zm-13.417,0a1.076,1.076,0,0,1-1.076,1.076H10.384a1.076,1.076,0,1,1,0-2.151H13.64A1.075,1.075,0,0,1,14.716,58.869Zm13.417,5.9a1.075,1.075,0,0,1-1.076,1.075H17.119a1.076,1.076,0,0,1,0-2.151h9.938A1.076,1.076,0,0,1,28.133,64.769Zm-13.417,0a1.075,1.075,0,0,1-1.076,1.075H10.384a1.076,1.076,0,1,1,0-2.151H13.64A1.076,1.076,0,0,1,14.716,64.769Zm13.417,5.9a1.076,1.076,0,0,1-1.076,1.076H17.119a1.076,1.076,0,0,1,0-2.152h9.938A1.076,1.076,0,0,1,28.133,70.668Zm-13.417,0a1.076,1.076,0,0,1-1.076,1.076H10.384a1.076,1.076,0,0,1,0-2.152H13.64A1.076,1.076,0,0,1,14.716,70.668Zm13.417,5.9a1.076,1.076,0,0,1-1.076,1.076H17.119a1.076,1.076,0,0,1,0-2.151h9.938A1.075,1.075,0,0,1,28.133,76.567Zm-13.417,0a1.076,1.076,0,0,1-1.076,1.076H10.384a1.076,1.076,0,1,1,0-2.151H13.64A1.075,1.075,0,0,1,14.716,76.567Zm13.417,5.9a1.075,1.075,0,0,1-1.076,1.075H17.119a1.076,1.076,0,0,1,0-2.151h9.938A1.076,1.076,0,0,1,28.133,82.467Zm-13.417,0a1.075,1.075,0,0,1-1.076,1.075H10.384a1.076,1.076,0,1,1,0-2.151H13.64A1.076,1.076,0,0,1,14.716,82.467Z"/><text x="0" y="115" fill="#000000" font-size="5px" font-weight="bold" font-family="'Helvetica Neue', Helvetica, Arial-Unicode, Arial, Sans-serif">Created by uyun</text><text x="0" y="120" fill="#000000" font-size="5px" font-weight="bold" font-family="'Helvetica Neue', Helvetica, Arial-Unicode, Arial, Sans-serif">from the Noun Project</text></svg>