<svg xmlns="http://www.w3.org/2000/svg" xmlns:xlink="http://www.w3.org/1999/xlink" version="1.1" x="0px" y="0px" viewBox="0 0 100 125" style="enable-background:new 0 0 100 100;" xml:space="preserve"><style type="text/css">
	.st0{fill:none;stroke:#000000;stroke-width:2;stroke-linecap:round;stroke-linejoin:round;stroke-miterlimit:10;}
</style><path d="M89.8,85.5h-2v-2.6c1.3-0.4,2.2-1.6,2.2-2.9c0-1.7-1.4-3.1-3.1-3.1s-3.1,1.4-3.1,3.1c0,1.3,0.8,2.4,2,2.9v2.7h-5.4v-2.6  c1.7-0.4,3-2,3-3.8c0-1.3-0.6-2.4-1.6-3.1c0.6-0.6,0.9-1.4,0.9-2.3c0-1.8-1.5-3.3-3.3-3.3s-3.3,1.5-3.3,3.3c0,0.9,0.4,1.7,0.9,2.3  c-1,0.7-1.6,1.9-1.6,3.1c0,1.8,1.2,3.3,2.8,3.8v2.6h-3.8V28.1c0-0.6-0.4-1-1-1h-0.5c-0.3-1.7-1.4-3.2-2.6-3.9  c-0.1-2.2-1.5-4.1-3.1-4.1h-1.1v-5.8c0-0.6-0.4-1-1-1s-1,0.4-1,1v5.8h-1.1c-1.5,0-2.9,2-3.1,4.1c-1.2,0.7-2.3,2.2-2.6,3.9h-0.5  c-0.6,0-1,0.4-1,1v13.5h-8V32c0-0.6-0.4-1-1-1H30.8c-0.6,0-1,0.4-1,1v16.4H28l-0.8-10.3c0-0.5-0.5-0.9-1-0.9h-2.5  c-0.5,0-1,0.4-1,0.9l-0.7,10.3h-0.8c-0.6,0-1,0.4-1,1v36.1h-5.6v-2.7c1.8-0.4,3.1-2,3.1-3.9c0-1.3-0.6-2.5-1.6-3.2  c0.6-0.6,1-1.4,1-2.4c0-1.8-1.5-3.4-3.4-3.4s-3.4,1.5-3.4,3.4c0,0.9,0.4,1.8,1,2.4c-1,0.7-1.6,1.9-1.6,3.2c0,1.8,1.2,3.4,2.9,3.8  v2.7h-1.7c-0.6,0-1,0.4-1,1s0.4,1,1,1h79c0.6,0,1-0.4,1-1S90.4,85.5,89.8,85.5z M86.9,78.8c0.6,0,1.1,0.5,1.1,1.1S87.5,81,86.9,81  s-1.1-0.5-1.1-1.1S86.3,78.8,86.9,78.8z M79.5,72.4c0.7,0,1.3,0.6,1.3,1.3s-0.6,1.3-1.3,1.3s-1.3-0.6-1.3-1.3S78.8,72.4,79.5,72.4z   M77.5,79.1c0-1.1,0.9-1.9,1.9-1.9s1.9,0.9,1.9,1.9S80.5,81,79.5,81S77.5,80.2,77.5,79.1z M13.7,72c0.7,0,1.4,0.6,1.4,1.4  s-0.6,1.4-1.4,1.4s-1.4-0.6-1.4-1.4S12.9,72,13.7,72z M11.6,78.9c0-1.1,0.9-2,2-2s2,0.9,2,2s-0.9,2-2,2S11.6,80,11.6,78.9z   M63.4,21.1l4.1,0c0.2,0.1,0.8,0.7,1,1.6h-6C62.6,21.8,63.2,21.2,63.4,21.1z M62,24.7h6.8c0.7,0,1.9,1,2.3,2.4H59.7  C60.2,25.7,61.4,24.7,62,24.7z M58.2,29.1h14.4v56.3h-6.2V42.6c0-0.6-0.4-1-1-1h-7.2V29.1z M64.4,43.6v41.9h-4.3v-4.6  c0-2.1-1.7-3.8-3.8-3.8c-2.1,0-3.8,1.7-3.8,3.8v4.6h-4.3V43.6H64.4z M58.1,85.5h-3.5v-4.6c0-1,0.8-1.8,1.8-1.8s1.8,0.8,1.8,1.8V85.5  z M31.8,33h14.4v52.4h-6V49.4c0-0.6-0.4-1-1-1h-7.4V33z M24.6,39.2h0.7l0.7,9.2h-2L24.6,39.2z M22.2,50.4h16.1v35.1h-4.7v-4.6  c0-2.1-1.7-3.8-3.8-3.8s-3.8,1.7-3.8,3.8v4.6h-3.9V50.4z M31.6,85.5h-3.5v-4.6c0-1,0.8-1.8,1.8-1.8s1.8,0.8,1.8,1.8V85.5z"/><path d="M26.2,56.8c0.6,0,1-0.4,1-1v-1.4c0-0.6-0.4-1-1-1s-1,0.4-1,1v1.4C25.2,56.3,25.6,56.8,26.2,56.8z"/><path d="M30.2,56.8c0.6,0,1-0.4,1-1v-1.4c0-0.6-0.4-1-1-1s-1,0.4-1,1v1.4C29.2,56.3,29.7,56.8,30.2,56.8z"/><path d="M34.3,56.8c0.6,0,1-0.4,1-1v-1.4c0-0.6-0.4-1-1-1s-1,0.4-1,1v1.4C33.3,56.3,33.7,56.8,34.3,56.8z"/><path d="M26.2,62.4c0.6,0,1-0.4,1-1v-1.4c0-0.6-0.4-1-1-1s-1,0.4-1,1v1.4C25.2,62,25.6,62.4,26.2,62.4z"/><path d="M30.2,62.4c0.6,0,1-0.4,1-1v-1.4c0-0.6-0.4-1-1-1s-1,0.4-1,1v1.4C29.2,62,29.7,62.4,30.2,62.4z"/><path d="M34.3,62.4c0.6,0,1-0.4,1-1v-1.4c0-0.6-0.4-1-1-1s-1,0.4-1,1v1.4C33.3,62,33.7,62.4,34.3,62.4z"/><path d="M26.2,68.1c0.6,0,1-0.4,1-1v-1.4c0-0.6-0.4-1-1-1s-1,0.4-1,1v1.4C25.2,67.6,25.6,68.1,26.2,68.1z"/><path d="M30.2,68.1c0.6,0,1-0.4,1-1v-1.4c0-0.6-0.4-1-1-1s-1,0.4-1,1v1.4C29.2,67.6,29.7,68.1,30.2,68.1z"/><path d="M34.3,68.1c0.6,0,1-0.4,1-1v-1.4c0-0.6-0.4-1-1-1s-1,0.4-1,1v1.4C33.3,67.6,33.7,68.1,34.3,68.1z"/><path d="M26.2,73.7c0.6,0,1-0.4,1-1v-1.4c0-0.6-0.4-1-1-1s-1,0.4-1,1v1.4C25.2,73.3,25.6,73.7,26.2,73.7z"/><path d="M30.2,73.7c0.6,0,1-0.4,1-1v-1.4c0-0.6-0.4-1-1-1s-1,0.4-1,1v1.4C29.2,73.3,29.7,73.7,30.2,73.7z"/><path d="M34.3,73.7c0.6,0,1-0.4,1-1v-1.4c0-0.6-0.4-1-1-1s-1,0.4-1,1v1.4C33.3,73.3,33.7,73.7,34.3,73.7z"/><path d="M52.3,51.4c0.6,0,1-0.4,1-1v-1.8c0-0.6-0.4-1-1-1s-1,0.4-1,1v1.8C51.3,50.9,51.8,51.4,52.3,51.4z"/><path d="M56.4,51.4c0.6,0,1-0.4,1-1v-1.8c0-0.6-0.4-1-1-1s-1,0.4-1,1v1.8C55.4,50.9,55.8,51.4,56.4,51.4z"/><path d="M60.4,51.4c0.6,0,1-0.4,1-1v-1.8c0-0.6-0.4-1-1-1s-1,0.4-1,1v1.8C59.4,50.9,59.9,51.4,60.4,51.4z"/><path d="M52.3,58.9c0.6,0,1-0.4,1-1v-1.8c0-0.6-0.4-1-1-1s-1,0.4-1,1v1.8C51.3,58.4,51.8,58.9,52.3,58.9z"/><path d="M56.4,58.9c0.6,0,1-0.4,1-1v-1.8c0-0.6-0.4-1-1-1s-1,0.4-1,1v1.8C55.4,58.4,55.8,58.9,56.4,58.9z"/><path d="M60.4,58.9c0.6,0,1-0.4,1-1v-1.8c0-0.6-0.4-1-1-1s-1,0.4-1,1v1.8C59.4,58.4,59.9,58.9,60.4,58.9z"/><path d="M52.3,66.4c0.6,0,1-0.4,1-1v-1.8c0-0.6-0.4-1-1-1s-1,0.4-1,1v1.8C51.3,66,51.8,66.4,52.3,66.4z"/><path d="M56.4,66.4c0.6,0,1-0.4,1-1v-1.8c0-0.6-0.4-1-1-1s-1,0.4-1,1v1.8C55.4,66,55.8,66.4,56.4,66.4z"/><path d="M60.4,66.4c0.6,0,1-0.4,1-1v-1.8c0-0.6-0.4-1-1-1s-1,0.4-1,1v1.8C59.4,66,59.9,66.4,60.4,66.4z"/><path d="M52.3,73.9c0.6,0,1-0.4,1-1v-1.8c0-0.6-0.4-1-1-1s-1,0.4-1,1v1.8C51.3,73.5,51.8,73.9,52.3,73.9z"/><path d="M56.4,73.9c0.6,0,1-0.4,1-1v-1.8c0-0.6-0.4-1-1-1s-1,0.4-1,1v1.8C55.4,73.5,55.8,73.9,56.4,73.9z"/><path d="M60.4,73.9c0.6,0,1-0.4,1-1v-1.8c0-0.6-0.4-1-1-1s-1,0.4-1,1v1.8C59.4,73.5,59.9,73.9,60.4,73.9z"/><path d="M61.4,30.9c-0.6,0-1,0.4-1,1v1.4c0,0.6,0.4,1,1,1s1-0.4,1-1v-1.4C62.4,31.3,61.9,30.9,61.4,30.9z"/><path d="M65.4,34.2c0.6,0,1-0.4,1-1v-1.4c0-0.6-0.4-1-1-1s-1,0.4-1,1v1.4C64.4,33.8,64.9,34.2,65.4,34.2z"/><path d="M69.5,34.2c0.6,0,1-0.4,1-1v-1.4c0-0.6-0.4-1-1-1s-1,0.4-1,1v1.4C68.5,33.8,68.9,34.2,69.5,34.2z"/><path d="M61.4,36.4c-0.6,0-1,0.4-1,1v1.4c0,0.6,0.4,1,1,1s1-0.4,1-1v-1.4C62.4,36.9,61.9,36.4,61.4,36.4z"/><path d="M66.4,38.8v-1.4c0-0.6-0.4-1-1-1s-1,0.4-1,1v1.4c0,0.6,0.4,1,1,1S66.4,39.4,66.4,38.8z"/><path d="M69.5,39.8c0.6,0,1-0.4,1-1v-1.4c0-0.6-0.4-1-1-1s-1,0.4-1,1v1.4C68.5,39.4,68.9,39.8,69.5,39.8z"/><path d="M69.5,45.4c0.6,0,1-0.4,1-1V43c0-0.6-0.4-1-1-1s-1,0.4-1,1v1.4C68.5,45,68.9,45.4,69.5,45.4z"/><path d="M69.5,51c0.6,0,1-0.4,1-1v-1.4c0-0.6-0.4-1-1-1s-1,0.4-1,1V50C68.5,50.5,68.9,51,69.5,51z"/><path d="M69.5,56.6c0.6,0,1-0.4,1-1v-1.4c0-0.6-0.4-1-1-1s-1,0.4-1,1v1.4C68.5,56.1,68.9,56.6,69.5,56.6z"/><path d="M69.5,62.2c0.6,0,1-0.4,1-1v-1.4c0-0.6-0.4-1-1-1s-1,0.4-1,1v1.4C68.5,61.7,68.9,62.2,69.5,62.2z"/><path d="M69.5,67.6c0.6,0,1-0.4,1-1v-1.4c0-0.6-0.4-1-1-1s-1,0.4-1,1v1.4C68.5,67.2,68.9,67.6,69.5,67.6z"/><path d="M69.5,73.2c0.6,0,1-0.4,1-1v-1.4c0-0.6-0.4-1-1-1s-1,0.4-1,1v1.4C68.5,72.8,68.9,73.2,69.5,73.2z"/><path d="M69.5,78.8c0.6,0,1-0.4,1-1v-1.4c0-0.6-0.4-1-1-1s-1,0.4-1,1v1.4C68.5,78.4,68.9,78.8,69.5,78.8z"/><path d="M35.2,35.1c-0.6,0-1,0.4-1,1v1.1c0,0.6,0.4,1,1,1s1-0.4,1-1v-1.1C36.2,35.6,35.8,35.1,35.2,35.1z"/><path d="M39.3,38.2c0.6,0,1-0.4,1-1v-1.1c0-0.6-0.4-1-1-1s-1,0.4-1,1v1.1C38.3,37.7,38.7,38.2,39.3,38.2z"/><path d="M43.3,38.2c0.6,0,1-0.4,1-1v-1.1c0-0.6-0.4-1-1-1s-1,0.4-1,1v1.1C42.3,37.7,42.8,38.2,43.3,38.2z"/><path d="M35.2,39.5c-0.6,0-1,0.4-1,1v1.1c0,0.6,0.4,1,1,1s1-0.4,1-1v-1.1C36.2,39.9,35.8,39.5,35.2,39.5z"/><path d="M39.3,42.5c0.6,0,1-0.4,1-1v-1.1c0-0.6-0.4-1-1-1s-1,0.4-1,1v1.1C38.3,42.1,38.7,42.5,39.3,42.5z"/><path d="M43.3,42.5c0.6,0,1-0.4,1-1v-1.1c0-0.6-0.4-1-1-1s-1,0.4-1,1v1.1C42.3,42.1,42.8,42.5,43.3,42.5z"/><path d="M35.2,43.8c-0.6,0-1,0.4-1,1v1.1c0,0.6,0.4,1,1,1s1-0.4,1-1v-1.1C36.2,44.3,35.8,43.8,35.2,43.8z"/><path d="M40.3,45.9v-1.1c0-0.6-0.4-1-1-1s-1,0.4-1,1v1.1c0,0.6,0.4,1,1,1S40.3,46.4,40.3,45.9z"/><path d="M43.3,46.9c0.6,0,1-0.4,1-1v-1.1c0-0.6-0.4-1-1-1s-1,0.4-1,1v1.1C42.3,46.4,42.8,46.9,43.3,46.9z"/><path d="M43.3,51.7c0.6,0,1-0.4,1-1v-1.1c0-0.6-0.4-1-1-1s-1,0.4-1,1v1.1C42.3,51.3,42.8,51.7,43.3,51.7z"/><path d="M43.3,56.1c0.6,0,1-0.4,1-1V54c0-0.6-0.4-1-1-1s-1,0.4-1,1v1.1C42.3,55.6,42.8,56.1,43.3,56.1z"/><path d="M43.3,60.4c0.6,0,1-0.4,1-1v-1.1c0-0.6-0.4-1-1-1s-1,0.4-1,1v1.1C42.3,60,42.8,60.4,43.3,60.4z"/><path d="M43.3,64.8c0.6,0,1-0.4,1-1v-1.1c0-0.6-0.4-1-1-1s-1,0.4-1,1v1.1C42.3,64.3,42.8,64.8,43.3,64.8z"/><path d="M43.3,69.1c0.6,0,1-0.4,1-1v-1.1c0-0.6-0.4-1-1-1s-1,0.4-1,1v1.1C42.3,68.7,42.8,69.1,43.3,69.1z"/><path d="M43.3,73.5c0.6,0,1-0.4,1-1v-1.1c0-0.6-0.4-1-1-1s-1,0.4-1,1v1.1C42.3,73,42.8,73.5,43.3,73.5z"/><path d="M43.3,77.8c0.6,0,1-0.4,1-1v-1.1c0-0.6-0.4-1-1-1s-1,0.4-1,1v1.1C42.3,77.4,42.8,77.8,43.3,77.8z"/><path d="M21.9,31.5c0,1.7,1.4,3.1,3.1,3.1c1.7,0,3.1-1.4,3.1-3.1c0-1.7-1.4-3.1-3.1-3.1C23.2,28.4,21.9,29.8,21.9,31.5z M26.1,31.5  c0,0.6-0.5,1.1-1.1,1.1s-1.1-0.5-1.1-1.1c0-0.6,0.5-1.1,1.1-1.1S26.1,30.9,26.1,31.5z"/><path d="M31.6,28.5c2.6,0,4.7-2.1,4.7-4.7s-2.1-4.7-4.7-4.7c-2.6,0-4.7,2.1-4.7,4.7S29,28.5,31.6,28.5z M31.6,21.1  c1.5,0,2.7,1.2,2.7,2.7s-1.2,2.7-2.7,2.7s-2.7-1.2-2.7-2.7S30.1,21.1,31.6,21.1z"/><text x="0" y="115" fill="#000000" font-size="5px" font-weight="bold" font-family="'Helvetica Neue', Helvetica, Arial-Unicode, Arial, Sans-serif">Created by Made by Made</text><text x="0" y="120" fill="#000000" font-size="5px" font-weight="bold" font-family="'Helvetica Neue', Helvetica, Arial-Unicode, Arial, Sans-serif">from the Noun Project</text></svg>