<svg xmlns="http://www.w3.org/2000/svg" data-name="Layer 1" viewBox="0 0 512 640" x="0px" y="0px"><title>Rupee Search bill</title><path d="M188.984,64.848a6,6,0,0,0-6-6H110.257a6,6,0,0,0,0,12h72.727A6,6,0,0,0,188.984,64.848Z"/><path d="M371.73,250.955a6,6,0,0,0,1.757,4.242l31.744,31.745a23.529,23.529,0,0,0,33.234,0h0a23.525,23.525,0,0,0,0-33.233l-31.743-31.743a6,6,0,0,0-8.486,0L390.1,230.1l-28.569-28.57A98.933,98.933,0,0,0,357.423,65.98h0A98.2,98.2,0,0,0,293.708,37.2V16a6,6,0,0,0-6-6c-8.554,0-13.123,3.078-16.8,5.551-3.02,2.034-5.2,3.5-10.091,3.5s-7.071-1.47-10.091-3.5C247.059,13.078,242.489,10,233.936,10s-13.123,3.078-16.794,5.551c-3.019,2.034-5.2,3.5-10.089,3.5s-7.07-1.47-10.089-3.5C193.293,13.078,188.724,10,180.171,10s-13.122,3.078-16.794,5.551c-3.019,2.034-5.2,3.5-10.088,3.5s-7.069-1.47-10.088-3.5C139.53,13.078,134.961,10,126.408,10s-13.121,3.078-16.792,5.552c-3.018,2.033-5.2,3.5-10.087,3.5s-7.067-1.47-10.086-3.5C85.772,13.078,81.2,10,72.652,10a6,6,0,0,0-6,6V386.408A47.649,47.649,0,0,0,114.247,434c1.413,0,2.808-.074,4.19-.195l.054,0H229.642v16.83a51.333,51.333,0,0,0,51.275,51.275h155.6q1.131.084,2.282.084a6.073,6.073,0,0,0,6-6.084,6,6,0,0,0-6-6h-1.779a18.715,18.715,0,0,1-16.91-18.605v-99.9a51.333,51.333,0,0,0-51.275-51.274H293.708V234.682a98.93,98.93,0,0,0,59.339-24.673l28.572,28.572-8.132,8.131A6,6,0,0,0,371.73,250.955ZM374.4,135.94a86.948,86.948,0,0,1-86.589,86.943c-.035,0-.068-.005-.1-.005-.1,0-.2.01-.294.015h-.031A86.949,86.949,0,1,1,374.4,135.94ZM146.018,421.811a47.485,47.485,0,0,0,15.825-35.4V366.034a33.9,33.9,0,0,1,67.8,0v55.777Zm262.087-50.4v99.9a30.535,30.535,0,0,0,6.3,18.605H280.917a39.32,39.32,0,0,1-39.275-39.275V366.034a45.784,45.784,0,0,0-14.986-33.9H368.83A39.319,39.319,0,0,1,408.105,371.409ZM197.159,320.135c-.127,0-.252,0-.377.011q-.518-.011-1.04-.011a45.951,45.951,0,0,0-45.9,45.9v20.374a35.6,35.6,0,0,1-71.191,0V23.1A25.225,25.225,0,0,1,82.738,25.5c3.671,2.474,8.24,5.552,16.791,5.552s13.121-3.078,16.792-5.552c3.019-2.033,5.2-3.5,10.087-3.5s7.069,1.47,10.089,3.5c3.67,2.473,8.239,5.551,16.792,5.551s13.122-3.078,16.793-5.551c3.02-2.034,5.2-3.5,10.089-3.5s7.069,1.47,10.088,3.5c3.672,2.474,8.241,5.552,16.794,5.552s13.122-3.078,16.793-5.551c3.02-2.034,5.2-3.5,10.09-3.5s7.071,1.47,10.091,3.5c3.672,2.473,8.242,5.551,16.8,5.551s13.123-3.078,16.8-5.551a25.134,25.134,0,0,1,4.091-2.409V37.173a99.119,99.119,0,0,0-87.29,64.991H148.463a6,6,0,0,0,0,12h42.454a99.735,99.735,0,0,0-2.391,21.776q0,4.81.454,9.54H148.463a6,6,0,0,0,0,12h42.4a97.741,97.741,0,0,0,12.92,31.317H148.463a6,6,0,0,0,0,12h64.283q2.281,2.619,4.758,5.1a98.644,98.644,0,0,0,64.2,28.82v85.415Zm205.32-85.443,27.5,27.5a11.515,11.515,0,0,1,0,16.265h0a11.516,11.516,0,0,1-16.264,0l-27.5-27.5Z"/><path d="M126.721,102.164H110.257a6,6,0,0,0,0,12h16.464a6,6,0,0,0,0-12Z"/><path d="M126.721,145.48H110.257a6,6,0,1,0,0,12h16.464a6,6,0,1,0,0-12Z"/><path d="M126.721,188.8H110.257a6,6,0,1,0,0,12h16.464a6,6,0,1,0,0-12Z"/><path d="M148.463,244.113H250.1a6,6,0,0,0,0-12H148.463a6,6,0,0,0,0,12Z"/><path d="M126.721,232.113H110.257a6,6,0,0,0,0,12h16.464a6,6,0,0,0,0-12Z"/><path d="M250.1,270.43H148.463a6,6,0,0,0,0,12H250.1a6,6,0,0,0,0-12Z"/><path d="M126.721,270.43H110.257a6,6,0,0,0,0,12h16.464a6,6,0,0,0,0-12Z"/><path d="M311.286,449.368h61.4a6,6,0,0,0,0-12h-61.4a6,6,0,0,0,0,12Z"/><path d="M290.79,437.368H273.723a6,6,0,0,0,0,12H290.79a6,6,0,0,0,0-12Z"/><path d="M311.286,414.368h61.4a6,6,0,0,0,0-12h-61.4a6,6,0,0,0,0,12Z"/><path d="M290.79,402.368H273.723a6,6,0,0,0,0,12H290.79a6,6,0,0,0,0-12Z"/><path d="M311.286,379.368h61.4a6,6,0,0,0,0-12h-61.4a6,6,0,0,0,0,12Z"/><path d="M267.723,373.368a6,6,0,0,0,6,6H290.79a6,6,0,0,0,0-12H273.723A6,6,0,0,0,267.723,373.368Z"/><path d="M273.428,78.21,254.147,78h-.065a6,6,0,0,0-.062,12l19.28.206a22.949,22.949,0,0,1,21.926,17.147l-41.388-.444h-.066a6,6,0,0,0-.063,12l41.388.444a22.948,22.948,0,0,1-22.039,16.674l-.249,0-19.281-.207a6,6,0,0,0-4.232,10.317L297,192.193a6,6,0,0,0,8.335-8.632l-36.849-35.577,4.2.045.38,0a34.962,34.962,0,0,0,34.312-28.542l13.717.147h.066a6,6,0,0,0,.063-12l-13.718-.147a34.8,34.8,0,0,0-7.894-17l21.793.235h.066a6,6,0,0,0,.063-12l-48.1-.517Z"/><text x="0" y="527" fill="#000000" font-size="5px" font-weight="bold" font-family="'Helvetica Neue', Helvetica, Arial-Unicode, Arial, Sans-serif">Created by Icongeek26</text><text x="0" y="532" fill="#000000" font-size="5px" font-weight="bold" font-family="'Helvetica Neue', Helvetica, Arial-Unicode, Arial, Sans-serif">from the Noun Project</text></svg>