<svg xmlns="http://www.w3.org/2000/svg" xmlns:xlink="http://www.w3.org/1999/xlink" xml:space="preserve" style="shape-rendering:geometricPrecision;text-rendering:geometricPrecision;image-rendering:optimizeQuality;" viewBox="0 0 4.7416 9.722199999999999" x="0px" y="0px" fill-rule="evenodd" clip-rule="evenodd"><defs><style type="text/css">
   
    .fil0 {fill:black}
   
  </style></defs><g><path class="fil0" d="M4.7416 0l0 2.90516 0 1.25713c0,0.95592 -0.772116,1.74164 -1.72294,1.76404l0 0.394908 0.808717 0 -1.45653 1.45653 -1.45653 -1.45653 0.791717 0 0 -0.395408c-0.94302,-0.0312007 -1.70604,-0.813317 -1.70604,-1.76354l0 -1.25713 0 -2.90516 4.7416 0zm-2.06174 5.92693l-0.635013 0 0 0.733115 -0.312907 0 0.638913 0.638913 0.638913 -0.638913 -0.329907 0 0 -0.733115zm-2.34105 -2.40515c0.360908,0.226705 0.917719,0.183104 1.19443,-0.164803 0.390108,0.385008 1.28523,0.384908 1.67524,0 0.276206,0.348007 0.833218,0.391608 1.19433,0.164703l0 0.640614c0,0.784917 -0.640914,1.42583 -1.42583,1.42583l-1.21233 0c-0.784917,0 -1.42583,-0.640914 -1.42583,-1.42583l0 -0.640514zm4.06399 -0.616613c0,0.557712 -0.894719,0.546712 -1.00532,0 -0.0223005,-0.110602 -0.315507,-0.110302 -0.338807,0 -0.110302,0.523011 -1.26523,0.523211 -1.37563,0 -0.0232005,-0.110402 -0.316507,-0.110602 -0.338807,0 -0.110602,0.546512 -1.00542,0.557712 -1.00542,0l0 -2.56635 4.06399 0 0 2.56635z"/></g><text x="0" y="22.77776" fill="#000000" font-size="5px" font-weight="bold" font-family="'Helvetica Neue', Helvetica, Arial-Unicode, Arial, Sans-serif">Created by Gatuso</text><text x="0" y="27.77776" fill="#000000" font-size="5px" font-weight="bold" font-family="'Helvetica Neue', Helvetica, Arial-Unicode, Arial, Sans-serif">from the Noun Project</text></svg>