<svg xmlns="http://www.w3.org/2000/svg" xmlns:xlink="http://www.w3.org/1999/xlink" version="1.1" x="0px" y="0px" viewBox="0 0 100 125" style="enable-background:new 0 0 100 100;" xml:space="preserve"><path d="M76.3,15.4c3.5,1.1,4.8,5.7,3.7,8.9c-0.4,1.7,2.5,2,3.5,2c1.8,0.1,3.1-1.2,4.8-1.6c1.4-0.6,2.6-2,3.2-3.8  c0.2-0.5-0.1-1-0.5-1.3c-1.7-0.8-3.2-2.4-3.9-4.1c-0.7-1.6-0.7-3.3,0-4.8c0.1-0.3,0.1-0.6,0-0.9c-0.1-0.3-0.3-0.5-0.6-0.6  c-1.7-0.6-3.5-0.5-5,0.3c-0.1-0.8,0.3-1.6,0.5-1.8c0.8-1.1-0.8-2.3-1.7-1.3c-0.5,0.5-1.3,2.6-0.8,3.9C78.1,10.7,74,14.2,76.3,15.4z   M79.8,12.6c0.5-0.3,1.1-0.2,1.7-0.5c0.9-0.8,2.1-1.2,3.2-1.1c-1.1,3.8,1.2,7.9,4.4,10c-0.5,1.1-1.6,2-2.9,2c-0.6,0.1-1,0.7-1.6,0.9  c-0.7,0.3-1.5,0.3-2.4,0c0.8-3.8-0.6-8.3-4.1-10.1C78.6,13.3,79.2,12.9,79.8,12.6z M97.4,63h-2.7c-0.3-1.2-0.8-2.3-1.4-3.4l1.9-1.9  c0.8-0.8,0.8-2.2,0-3l-4.4-4.4c-0.8-0.8-2.2-0.8-3,0l-1.9,1.9c-1.1-0.6-2.2-1-3.4-1.4v-2.7c0-1.2-1-2.1-2.1-2.1h-6.2  c-1.2,0-2.1,1-2.1,2.1v2.7c-0.5,0.2-1.1,0.4-1.6,0.6l5.7-29.9c0.1-0.3,0-0.6-0.2-0.9c-0.2-0.2-0.5-0.4-0.8-0.4H44.3l23.8-5.2  c0.6-0.1,0.9-0.7,0.8-1.2c0,0-0.3-1.5-0.3-1.5c-0.8-3.8-4.5-6.1-8.3-5.3L47.7,9.8c0,0-0.5-2.4-0.5-2.4c-0.4-2.2-2.7-3.6-4.8-3.1  c0,0-10.9,2.4-10.9,2.4c-2.2,0.5-3.6,2.7-3.1,4.8c0,0,0.5,2.4,0.5,2.4s-12.6,2.7-12.6,2.7c-1.8,0.4-3.4,1.5-4.4,3  c-1,1.6-1.3,3.4-0.9,5.3c0.2,0.5,0.2,1.8,0.8,2.1c0.2,0.2,0.5,0.2,0.8,0.1c0,0,5.5-1.2,5.5-1.2c2.4,12.8,4.9,25.6,7.3,38.5  c-2.2,1.7-3.6,4.5-3.9,6.7c-0.2-1.3-0.9-2.5-1.8-3.5c0.7-4-1.9-10.8-8.4-11.9C9,55.4,8.2,56.1,5.8,56c-1.3,0-2.6-0.3-3.9-0.7  c-0.6-0.2-1.3,0.2-1.3,0.9c-1.4,9.3,9.2,17.2,17.7,13.1c1.7,1.6,1.1,4.8,1.2,6.9c0,0.1,0,0.1,0,0.2l0,7.9c-1.2,0-2.6,0.2-3.7,0.8  c-1,0.6-1.5,0.5-2.4,0.5c-1-0.2-2.4,0.3-2.9,0.8c-0.3,0.3-0.5,0.4-0.8,0.4C8.3,87,7.2,88.3,6.6,89c-0.5,0.5-1.5,0.8-2,1.9  c-0.3,0.6-0.7,1-1,1.4c-0.2,0.2-1.1,0.9-1.8,1.5c-0.8,0.6-0.3,1.9,0.6,1.9c0,0,36.2,0,36.2,0c1.9-0.2,1-2.8-1.3-4.2  c-0.8-0.4-2-1.2-2.7-1.3c-1.3-1-1.9-1.3-4.3-1.8c-1.3-0.2-1.8-0.6-2.5-1.4c-1.2-1.4-1.8-0.7-3.6-1.1c-2-0.4-1-0.8-2.6-1.3  c0,0,0-0.1,0-0.1l0-7.6l1.1-0.9c2.7,1.3,5.7,1.5,8.5,0.6c0,0,30,0,30,0c0,0.1,0.1,0.1,0.1,0.2l-1.9,1.9c-0.8,0.8-0.8,2.3,0,3.1  c0,0,4.4,4.4,4.4,4.4c0.8,0.8,2.2,0.8,3,0l1.9-1.9c1.1,0.6,2.2,1.1,3.4,1.4v2.7c0,1.2,1,2.1,2.1,2.1h6.2c1.2,0,2.1-1,2.1-2.1v-2.7  c1.2-0.3,2.3-0.8,3.4-1.4l1.9,1.9c0.9,0.8,2.2,0.8,3,0l4.4-4.3c0.8-0.8,0.8-2.2,0-3.1l-1.9-1.9c0.6-1.1,1-2.2,1.4-3.3h2.7  c1.2,0,2.1-1,2.1-2.2v-6.1C99.5,64,98.6,63,97.4,63z M8.3,62.3c3.3,0.6,6.9,3,8.7,5.3c-6.5,2.7-14.6-3-14.4-10  c1.8,0.5,4.7,0.5,6.2,0.2c0.8-0.1,1.3-0.2,2.1-0.1c4.1,0.9,6.3,4.2,6.6,7.4c-2.2-2.4-5.5-4.3-8.9-5c-0.6-0.1-1.1,0.2-1.2,0.8  C7.4,61.6,7.7,62.2,8.3,62.3z M23.8,87.9c1.1,0.2,1.7,0.3,2.2,0.2c1.1,1.1,2,2,4,2.4c1.9,0.4,2.5,0.7,2.7,0.9c0.4,0.2,1.1,1.1,1.8,1  c0.5,0.2,1.8,0.9,2.4,1.3H5.2c0.4-0.6,0.8-1,1.3-1.9c0.1-0.2,0.6-0.6,1-0.8c0.8-0.4,1.5-1.9,2.5-2.1c1.6-0.2,1.9-1.5,3.4-1.2  c1,0,2,0.1,3.5-0.8c1.1-0.7,3.2-0.6,4.3-0.3C21.6,87.2,22,87.6,23.8,87.9z M32,8.8l10.9-2.4c1-0.2,2.2,0.5,2.4,1.5  c0,0,0.5,2.4,0.5,2.4L31,13.5l-0.5-2.4C30.2,10,30.9,9,32,8.8z M13.1,25c-0.8-2.7,0.8-5.7,3.6-6.3c0,0,44-9.6,44-9.6  c2.7-0.6,5.5,1.3,5.9,4.2C53.6,16.2,26,22.2,13.1,25z M20.1,25.6c0,0,14.6-3.2,14.6-3.2h39.2l-5.6,29.4c-0.2-0.2-1.6-1.6-1.8-1.8  c-0.8-0.5-2-0.5-2.7,0.3c0,0-4.4,4.4-4.4,4.4c-0.8,0.8-0.8,2.2,0,3c0.2,0.2,1.7,1.7,1.9,1.9c-0.6,1.1-1.1,2.2-1.4,3.4h-2.7  c-1.2,0-2.1,1-2.1,2.1v4.7H39.3c0.3,0,0.9-2.4,1-2.8c0.3-1.3,0.4-2.8,0.2-4.1c0-0.3-0.2-0.6-0.5-0.8c-0.3-0.2-0.6-0.2-0.9-0.1  c-2.2,0.7-4.4,0.7-6.7,0.4c-1.8-0.2-3.5,0-5.2,0.8C24.9,50.7,22.5,38.1,20.1,25.6z M24.1,74.3c1.7-2.2,5.5-4.6,8.9-4.8  c0.6-0.1,1-0.6,0.9-1.2c-0.1-0.6-0.6-1-1.2-0.9c-3.4,0.3-7.2,2.3-9.3,4.5c0.1-3.1,3.1-6.9,6.6-7.4c1.8-0.4,3.5,0.3,5.3,0.2  c1.1-0.1,2.1-0.2,3.2-0.4C38.6,71.5,30.8,76.9,24.1,74.3z M35.4,74.5c1-0.7,1.9-1.6,2.6-2.6h17.2c0.3,0.9,1.1,1.5,2.1,1.5  c0,0,2.7,0,2.7,0c0.1,0.3,0.2,0.7,0.4,1H35.4z M97.4,71.4h-3.5c-0.5,0-0.9,0.3-1,0.8c-0.4,1.5-1,3-1.8,4.3c-0.2,0.4-0.2,0.9,0.2,1.3  l2.5,2.5c0,0,0,0.1,0,0.1l-4.3,4.3c0,0-0.1,0-0.1,0l-2.5-2.5c-0.3-0.3-0.9-0.4-1.3-0.2c-1.4,0.8-2.8,1.4-4.3,1.8  c-0.5,0.1-0.8,0.5-0.8,1l-0.1,3.6l-6.2-0.1v-3.5c0-0.5-0.3-0.9-0.8-1c-1.5-0.4-2.9-1-4.3-1.8c-0.4-0.2-0.9-0.2-1.3,0.2  c0,0-2.5,2.5-2.5,2.5c0,0-0.1,0-0.1,0l-4.4-4.4l2.5-2.5c0.3-0.3,0.4-0.9,0.2-1.3c-0.5-1-1-1.8-1.3-2.8c-0.4-0.8-0.3-2.3-1.5-2.3  c-0.7,0-2.9,0-3.6-0.1c0-1.6,0-4.5,0.1-6.2h3.5c0.5,0,0.9-0.3,1-0.8c0.4-1.5,1-2.9,1.8-4.3c0.3-0.4,0.1-1-0.2-1.4  c0,0-2.4-2.5-2.4-2.5l4.4-4.3c0,0,2.5,2.5,2.5,2.5c0.5,0.6,1.2,0.2,1.8-0.1c1.2-0.7,2.4-1.2,3.8-1.5c0.5-0.1,0.8-0.5,0.8-1l0.1-3.6  l6.2,0.1v3.5c0,0.5,0.3,0.9,0.8,1c1.5,0.4,3,1,4.3,1.8c0.4,0.2,0.9,0.2,1.3-0.2l2.5-2.5c0,0,0.1,0,0.1,0l4.3,4.3c0,0,0,0.1,0,0.1  l-2.5,2.5c-0.3,0.3-0.4,0.9-0.2,1.3c0.8,1.3,1.4,2.8,1.8,4.3c0.1,0.5,0.5,0.8,1,0.8h3.5l0.1,0.1L97.4,71.4z M75.1,57.1  c-7.6,1.3-11.6,10.6-7.5,17c5.3,8.8,19,6.4,20.9-3.7C90.2,62.7,82.8,55.4,75.1,57.1z M86.4,70c-1.6,8.2-12.8,10.1-17,3  c-3.4-5.2-0.1-12.9,6.1-13.9C81.7,57.7,87.8,63.7,86.4,70z M52.5,56.2l2.6-23.9c0.2-1.4,2.2-1.1,2.1,0.2c0,0-2.6,23.9-2.6,23.9  C54.4,57.8,52.4,57.6,52.5,56.2z M38.9,56.4l-2.6-24.1c-0.1-1.4,1.9-1.6,2.1-0.2c0,0,2.6,24.1,2.6,24.1C41.1,57.6,39,57.8,38.9,56.4  z"/><text x="0" y="115" fill="#000000" font-size="5px" font-weight="bold" font-family="'Helvetica Neue', Helvetica, Arial-Unicode, Arial, Sans-serif">Created by karyative</text><text x="0" y="120" fill="#000000" font-size="5px" font-weight="bold" font-family="'Helvetica Neue', Helvetica, Arial-Unicode, Arial, Sans-serif">from the Noun Project</text></svg>