<svg xmlns="http://www.w3.org/2000/svg" data-name="Layer 1" viewBox="0 0 128 160" x="0px" y="0px"><title>miscellaneous334_expandline</title><path d="M68.00024,116h-66a2,2,0,1,0,0,4h66a2,2,0,0,0,0-4Z"/><path d="M127.75269,14.77211C118.84937-1.41924,98.64288-.21031,94.68384.193a3.04686,3.04686,0,0,0-2.68848,2.98438V25.987H70.00024v-14a4.00427,4.00427,0,0,0-4-4H36.00659a4.00427,4.00427,0,0,0-4,4V23.986H4.00171a4.00427,4.00427,0,0,0-4,4L.00024,57.987a6.00656,6.00656,0,0,0,6,6h116a6.00656,6.00656,0,0,0,6-6V15.2223ZM32.00659,59.987H6.00024a2.00229,2.00229,0,0,1-2-2V35.98585l.00146.00012H32.00659Zm0-28.001H4.00171v-4H32.00659ZM55.00317,59.987h-8v-5.999a2.00229,2.00229,0,0,1,2-2h4a2.00229,2.00229,0,0,1,2,2Zm10.99707,0H59.00317v-5.999a6.00656,6.00656,0,0,0-6-6h-4a6.00656,6.00656,0,0,0-6,6v5.999H36.00659v-40H66.00024Zm-29.99365-44v-4H66.00024l.00244,4Zm55.98877,44H70.00024v-22H91.99536Zm0-26H70.00024v-4H91.99536Zm12.00488,26-8.012.00128.00714-53.5437c3.14343,2.10663,7.81311,6.20844,8.00488,12.08246Zm20-2a2.00229,2.00229,0,0,1-2,2h-14l-.001-41.52539c-.22406-6.88843-4.82428-11.69086-8.53-14.46045,6.7146.09784,18.51617,1.85864,24.53094,12.25928Z"/><path d="M41.99878,27.99287h4a2,2,0,0,0,0-4h-4a2,2,0,0,0,0,4Z"/><path d="M56.00757,27.99287h4a2,2,0,0,0,0-4h-4a2,2,0,0,0,0,4Z"/><path d="M41.99878,35.99776h4a2,2,0,1,0,0-4h-4a2,2,0,0,0,0,4Z"/><path d="M56.00757,35.99776h4a2,2,0,1,0,0-4h-4a2,2,0,0,0,0,4Z"/><path d="M41.99878,44.00264h4a2,2,0,0,0,0-4h-4a2,2,0,1,0,0,4Z"/><path d="M56.00757,44.00264h4a2,2,0,0,0,0-4h-4a2,2,0,1,0,0,4Z"/><path d="M10.00171,45.98994a2.0001,2.0001,0,0,0,2-2v-2a2,2,0,1,0-4,0v2A2.0001,2.0001,0,0,0,10.00171,45.98994Z"/><path d="M18.00659,45.98994a2.0001,2.0001,0,0,0,2-2v-2a2,2,0,0,0-4,0v2A2.0001,2.0001,0,0,0,18.00659,45.98994Z"/><path d="M26.01147,45.98994a2.0001,2.0001,0,0,0,2-2v-2a2,2,0,0,0-4,0v2A2.0001,2.0001,0,0,0,26.01147,45.98994Z"/><path d="M79.95874,46.98994h2a2,2,0,0,0,0-4h-2a2,2,0,0,0,0,4Z"/><path d="M79.95874,54.9958h2a2,2,0,0,0,0-4h-2a2,2,0,1,0,0,4Z"/><path d="M10.00171,55.99678a2.0001,2.0001,0,0,0,2-2v-2a2,2,0,1,0-4,0v2A2.0001,2.0001,0,0,0,10.00171,55.99678Z"/><path d="M18.00659,55.99678a2.0001,2.0001,0,0,0,2-2v-2a2,2,0,0,0-4,0v2A2.0001,2.0001,0,0,0,18.00659,55.99678Z"/><path d="M26.01147,55.99678a2.0001,2.0001,0,0,0,2-2v-2a2,2,0,0,0-4,0v2A2.0001,2.0001,0,0,0,26.01147,55.99678Z"/><path d="M118.00269,20.00166h-4.001a2,2,0,0,0,0,4h4.001a2,2,0,0,0,0-4Z"/><path d="M118.00269,28.01143h-4.001a2,2,0,0,0,0,4h4.001a2,2,0,0,0,0-4Z"/><path d="M118.00269,36.01729h-4.001a2,2,0,0,0,0,4h4.001a2,2,0,0,0,0-4Z"/><path d="M118.00269,44.02217h-4.001a2,2,0,0,0,0,4h4.001a2,2,0,1,0,0-4Z"/><path d="M118.00269,52.02705h-4.001a2,2,0,0,0,0,4h4.001a2,2,0,0,0,0-4Z"/><path d="M2,106H30.18115a11.1606,11.1606,0,0,1,0-4H2a2,2,0,0,0,0,4Z"/><path d="M34.00024,103.99287a8,8,0,1,0,8-8A8.00917,8.00917,0,0,0,34.00024,103.99287Zm12,0a4,4,0,1,1-4-4A4.00427,4.00427,0,0,1,46.00024,103.99287Z"/><path d="M65.96265,92.82227a6.56344,6.56344,0,0,0-2.98535-4.55273c-1.82617-1.3916-5.37158-3.16016-11.88721-3.68066A24.09142,24.09142,0,0,1,42.17017,81.584a26.63574,26.63574,0,0,1-5.82959-4.79687c-2.3291-2.377-6.95557-6.41895-11.77637-6.78125C24.5144,70.002,1.99976,70,1.99976,70a2,2,0,0,0,0,4h22.334c3.62549.31543,7.60156,4.00586,9.14941,5.58594a30.14067,30.14067,0,0,0,6.709,5.47461A28.00728,28.00728,0,0,0,50.77026,88.5752c6.05957.48535,8.86035,2.17285,9.78223,2.876,1.1665.88867,1.36816,1.33789,1.42139,1.7002.002.25488.00677.93567.01172,1.84863H60.00024a2,2,0,0,0,0,4h1.99908c.00079.684.00067,1.3714-.001,2.0293A.97821.97821,0,0,1,61.0188,102H53.81958a11.1606,11.1606,0,0,1,0,4H61.0188a4.98544,4.98544,0,0,0,4.97949-4.96094C66.00165,99.74084,65.969,92.88477,65.96265,92.82227Z"/><path d="M21.42456,77.99483H16.00024a2.0001,2.0001,0,0,0-2,2v7.998a2.0001,2.0001,0,0,0,2,2h16a2.03181,2.03181,0,0,0,1.58547-3.21875C32.43579,85.27705,26.48315,77.84346,21.42456,77.99483Zm-3.42432,7.998v-3.998l3.49316-.001c1.48633-.06543,3.93262,1.84961,6.07568,3.999Z"/><path d="M2.00024,85.99287a2,2,0,1,0,0,4h6a2.0001,2.0001,0,0,0,2-2v-8a2.0001,2.0001,0,0,0-2-2h-6a2,2,0,1,0,0,4h4v4Z"/><path d="M106.87915,119.58031l-3.178,2.51917,5.991,5.40759a2.05725,2.05725,0,0,0,2.82471-.14453,1.99944,1.99944,0,0,0-.145-2.82422Z"/><path d="M113.14832,113.91225a11.49471,11.49471,0,0,1-2.77863,2.87787l11.25507,10.66144a2.00018,2.00018,0,0,0,2.751-2.9043Z"/><path d="M101.00024,83.99287a8,8,0,1,0-8-8A8.00917,8.00917,0,0,0,101.00024,83.99287Zm0-12a4,4,0,1,1-4,4A4.00427,4.00427,0,0,1,101.00024,71.99287Z"/><path d="M95.25415,110.09151,97.02856,91.154a6.739,6.739,0,0,1,1.42511-3.43329,11.614,11.614,0,0,1-2.29193-.76205c-.17048-.0766-1.99426-1.12845-2.00684-1.11734-4.00507,3.53986-8.49585,7.50946-11.182,9.88788a5.96071,5.96071,0,0,0-.30079,8.56933,5.69634,5.69634,0,0,0,7.69044.292l1.51563-1.33923-.55859,5.95447s-5.35107,7.85156-5.49951,8.1914a3.718,3.718,0,0,0-.33447,1.21387l-.481,7.25586a2,2,0,1,0,3.99121.26367l.46924-7.07812c.16943-.28125,5.45117-8.02246,5.45117-8.02246A2.00129,2.00129,0,0,0,95.25415,110.09151Zm-2.8299-12.66113-4.71161,4.16309a1.53946,1.53946,0,0,1-2.17769-.08882,1.97049,1.97049,0,0,1,.08931-2.7813c1.832-1.62189,4.50128-3.98224,7.2829-6.441Z"/><path d="M89.0509,76H70.00024a2,2,0,0,0,0,4H90.10559A11.88986,11.88986,0,0,1,89.0509,76Z"/><path d="M126.00024,76H112.94959a11.88986,11.88986,0,0,1-1.05469,4h14.10535a2,2,0,0,0,0-4Z"/><path d="M109.37511,84.57824a12.85172,12.85172,0,0,1-3.33306,2.29311l17.4621,17.12671a1.4392,1.4392,0,0,1,.10647,2.06833,2.07676,2.07676,0,0,1-2.87307.11233c-5.57666-5.2168-13.373-12.49121-13.373-12.49121l-.02069.02216a1.9902,1.9902,0,0,0-2.70563,2.90375c.02478.02716.04321.0578.06976.08386l3.231,3.17352-1.36786,9.31964a1.88955,1.88955,0,0,1-.32959.66406L95.23023,118.583a3.5394,3.5394,0,0,0-1.23975,2.2207l-.72949,4.90234a1.99975,1.99975,0,1,0,3.95605.58789l.70557-4.74121,10.87841-8.623a5.15836,5.15836,0,0,0,1.73-3.17285l.98627-6.72058c2.135,1.99414,4.45721,4.16406,6.48736,6.06335a6.196,6.196,0,0,0,6.99346.88034,5.691,5.691,0,0,0,2.61482-2.943,5.553,5.553,0,0,0-1.34069-5.92558S109.60548,84.77414,109.37511,84.57824Z"/><text x="0" y="143" fill="#000000" font-size="5px" font-weight="bold" font-family="'Helvetica Neue', Helvetica, Arial-Unicode, Arial, Sans-serif">Created by WEBTECHOPS LLP</text><text x="0" y="148" fill="#000000" font-size="5px" font-weight="bold" font-family="'Helvetica Neue', Helvetica, Arial-Unicode, Arial, Sans-serif">from the Noun Project</text></svg>