<svg xmlns="http://www.w3.org/2000/svg" xmlns:xlink="http://www.w3.org/1999/xlink" version="1.1" x="0px" y="0px" viewBox="0 0 64 80" style="enable-background:new 0 0 64 64;" xml:space="preserve"><g><path d="M56,47.996v3h-6.697l-2.748-1.832l-8.428-2.989c-0.803-0.282-1.663-0.225-2.421,0.16c-0.759,0.385-1.312,1.045-1.559,1.859   c-0.427,1.41,0.207,2.935,1.507,3.624l2.165,1.15l-3.148,0.01l-1.294-3.236c-0.425-1.062-1.438-1.747-2.582-1.747   c-0.893,0-1.737,0.433-2.258,1.158s-0.662,1.664-0.377,2.511l0.302,0.897l-2.193-1.199c-0.699-0.382-1.533-0.457-2.287-0.202   c-0.755,0.252-1.376,0.812-1.704,1.538c-0.642,1.418-0.051,3.069,1.345,3.758l4.936,2.436l10.246,2.084l13.295,0.02L56,60.216v2.78   h7v-15H56z M30.161,50.321c0.335-0.468,1.144-0.369,1.358,0.165l1,2.499l-1.802,0.006l-0.662-1.965   C29.973,50.785,30.012,50.528,30.161,50.321z M51.901,58.996H39.099l-9.774-1.955l-4.818-2.377   c-0.423-0.209-0.603-0.71-0.408-1.141c0.101-0.223,0.284-0.389,0.517-0.466c0.231-0.079,0.479-0.057,0.694,0.062l3.435,1.877h9.491   l3.946-1.973l-5.59-2.972c-0.458-0.243-0.682-0.78-0.531-1.277c0.087-0.287,0.282-0.521,0.55-0.656   c0.267-0.136,0.571-0.155,0.854-0.057l8.086,2.837l3.147,2.098H56v5.18L51.901,58.996z M61,60.996h-3v-11h3V60.996z"/><path d="M1,37v6h48v-6h-3V20h3.237L45.809,4H4.191L0.763,20H4v17H1z M47,39v2H3v-2h1h4h13h25H47z M19,37h-9v-7.5   c0-2.481,2.019-4.5,4.5-4.5s4.5,2.019,4.5,4.5V37z M46.763,18H46h-1h-9.508L26.261,6h17.93L46.763,18z M32.969,18H29.48L25,12.399   L20.52,18h-3.489L25,7.64L32.969,18z M3.237,18L5.809,6h17.93l-9.231,12H5H4H3.237z M6,20h9h0.492h5.988L25,15.601L28.52,20h5.988   H35h9v17H21v-7.5c0-3.584-2.916-6.5-6.5-6.5S8,25.916,8,29.5V37H6V20z"/><path d="M42,22H26v10h16V22z M40,26h-5v-2h5V26z M33,24v2h-5v-2H33z M28,28h5v2h-5V28z M35,30v-2h5v2H35z"/></g><text x="0" y="79" fill="#000000" font-size="5px" font-weight="bold" font-family="'Helvetica Neue', Helvetica, Arial-Unicode, Arial, Sans-serif">Created by Eucalyp</text><text x="0" y="84" fill="#000000" font-size="5px" font-weight="bold" font-family="'Helvetica Neue', Helvetica, Arial-Unicode, Arial, Sans-serif">from the Noun Project</text></svg>