<svg xmlns="http://www.w3.org/2000/svg" xmlns:xlink="http://www.w3.org/1999/xlink" version="1.1" x="0px" y="0px" viewBox="0 0 91 113.75" enable-background="new 0 0 91 91" xml:space="preserve"><g><g><path d="M6.151,89.358h79.121c3.016,0,5.471-2.453,5.471-5.471v-2.553c0-2.502-1.699-4.594-3.998-5.242V23.094    c0-1.162-0.941-2.104-2.104-2.104h-7.893c-1.162,0-2.105,0.941-2.105,2.104s0.943,2.104,2.105,2.104h5.787v50.668H8.888V25.198    h14.324c1.162,0,2.105-0.941,2.105-2.104s-0.943-2.104-2.105-2.104H6.782c-1.162,0-2.104,0.941-2.104,2.104v52.999    c-2.299,0.648-3.998,2.74-3.998,5.242v2.553C0.681,86.905,3.136,89.358,6.151,89.358z M35.132,80.073    c0.059,1.111,0.957,1.996,2.084,1.996h16.662c1.125,0,2.023-0.885,2.084-1.996h28.68h0.631c0.697,0,1.262,0.566,1.262,1.262v2.553    c0,0.697-0.564,1.262-1.262,1.262H6.151c-0.697,0-1.262-0.564-1.262-1.262v-2.553c0-0.695,0.564-1.262,1.262-1.262h0.631H35.132z"/><path d="M15.165,68.954V32.19h7.766c1.162,0,2.104-0.941,2.104-2.104s-0.941-2.104-2.104-2.104H13.06    c-1.16,0-2.104,0.941-2.104,2.104v40.971c0,1.162,0.943,2.105,2.104,2.105h65.654c1.162,0,2.105-0.943,2.105-2.105V30.086    c0-1.162-0.943-2.104-2.105-2.104h-1.912c-1.164,0-2.105,0.941-2.105,2.104c0,1.098,0.84,1.998,1.914,2.094v36.774H15.165z"/><path d="M70.571,36.065c0.412,0.41,0.951,0.617,1.488,0.617c0.539,0,1.078-0.207,1.488-0.617c0.822-0.822,0.822-2.154,0-2.975    l-4.951-4.949c-0.82-0.82-2.152-0.82-2.975,0.002l-4.947,4.947c-0.822,0.822-0.822,2.152,0,2.975c0.82,0.82,2.152,0.82,2.975,0    l1.457-1.457v24.108H53.524V46.997c0-1.16-0.943-2.102-2.105-2.102s-2.104,0.941-2.104,2.102v11.719H26.46v-6.398    c0-1.162-0.941-2.105-2.104-2.105s-2.105,0.943-2.105,2.105v6.398h-2.719c-1.16,0-2.104,0.939-2.104,2.104    c0,1.162,0.943,2.105,2.104,2.105H72.06c1.162,0,2.105-0.943,2.105-2.105c0-1.164-0.943-2.104-2.105-2.104h-2.744V34.809    L70.571,36.065z"/><path d="M24.356,34.411c-3.912,0-7.098,3.184-7.098,7.096c0,3.913,3.186,7.094,7.098,7.094c3.914,0,7.098-3.182,7.098-7.094    c0-1.703-0.627-3.246-1.631-4.471l4.432-6.311c1.006,0.547,2.141,0.887,3.365,0.887c1.406,0,2.713-0.424,3.818-1.135l3.428,3.109    c-0.348,0.838-0.545,1.752-0.545,2.717c0,3.914,3.184,7.098,7.098,7.098c3.912,0,7.096-3.184,7.096-7.098    c0-1.449-0.441-2.793-1.188-3.918l7.4-7.666c0.643,0.195,1.313,0.33,2.018,0.33c3.912,0,7.098-3.186,7.098-7.098    s-3.186-7.096-7.098-7.096s-7.096,3.184-7.096,7.096c0,1.654,0.592,3.158,1.547,4.365l-7.148,7.406    c-0.814-0.328-1.697-0.518-2.629-0.518c-1.42,0-2.738,0.428-3.85,1.15l-3.41-3.09c0.357-0.848,0.557-1.775,0.557-2.75    c0-3.914-3.184-7.096-7.096-7.096c-3.916,0-7.102,3.182-7.102,7.096c0,1.129,0.289,2.18,0.758,3.127l-4.969,7.076    C25.683,34.538,25.036,34.411,24.356,34.411z M24.356,44.394c-1.594,0-2.889-1.295-2.889-2.887s1.295-2.887,2.889-2.887    c1.592,0,2.891,1.295,2.891,2.887S25.948,44.394,24.356,44.394z M66.745,15.065c1.594,0,2.889,1.295,2.889,2.887    c0,1.594-1.295,2.889-2.889,2.889c-1.592,0-2.887-1.295-2.887-2.889C63.858,16.36,65.153,15.065,66.745,15.065z M54.306,36.303    c0,1.594-1.295,2.889-2.887,2.889c-1.594,0-2.889-1.295-2.889-2.889c0-1.592,1.295-2.891,2.889-2.891    C53.011,33.413,54.306,34.711,54.306,36.303z M37.62,21.627c1.592,0,2.887,1.297,2.887,2.889s-1.295,2.887-2.887,2.887    c-1.596,0-2.893-1.295-2.893-2.887S36.024,21.627,37.62,21.627z"/><path d="M39.71,33.694c-0.783-0.783-2.193-0.781-2.975,0c-0.393,0.393-0.619,0.936-0.619,1.49c0,0.551,0.227,1.096,0.619,1.488    c0.391,0.393,0.934,0.615,1.488,0.615c0.553,0,1.096-0.223,1.486-0.615c0.393-0.393,0.617-0.938,0.617-1.488    C40.327,34.629,40.103,34.086,39.71,33.694z"/><circle cx="38.224" cy="50.553" r="2.104"/><path d="M38.224,43.329c-1.162,0-2.105,0.939-2.105,2.104c0,1.158,0.943,2.102,2.105,2.102s2.102-0.943,2.102-2.102    C40.325,44.269,39.386,43.329,38.224,43.329z"/><path d="M38.224,38.206c-1.162,0-2.105,0.938-2.105,2.102c0,1.162,0.943,2.104,2.105,2.104s2.102-0.941,2.102-2.104    C40.325,39.143,39.386,38.206,38.224,38.206z"/><path d="M36.735,57.165c0.391,0.393,0.934,0.615,1.488,0.615c0.553,0,1.096-0.223,1.486-0.615    c0.393-0.393,0.617-0.934,0.617-1.488c0-0.553-0.225-1.098-0.617-1.488c-0.783-0.783-2.193-0.783-2.975,0    c-0.393,0.391-0.619,0.936-0.619,1.488C36.116,56.231,36.343,56.772,36.735,57.165z"/><path d="M37.616,16.747c1.162,0,2.104-0.941,2.104-2.104V8.448l1.357,1.355c0.412,0.412,0.951,0.617,1.488,0.617    c0.541,0,1.076-0.205,1.488-0.617c0.822-0.82,0.822-2.154,0-2.973l-4.949-4.949c-0.822-0.82-2.154-0.82-2.977,0.002l-4.947,4.947    c-0.822,0.82-0.822,2.152,0,2.973c0.82,0.822,2.152,0.822,2.975,0l1.357-1.355v6.195C35.513,15.805,36.454,16.747,37.616,16.747z"/><path d="M51.417,21.245c1.164,0,2.107-0.941,2.107-2.104c0-1.164-0.943-2.104-2.107-2.104c-1.16,0-2.104,0.939-2.104,2.104    C49.313,20.303,50.257,21.245,51.417,21.245z"/><path d="M51.417,26.295c1.164,0,2.107-0.943,2.107-2.104c0-1.164-0.943-2.104-2.107-2.104c-1.16,0-2.104,0.939-2.104,2.104    C49.313,25.352,50.257,26.295,51.417,26.295z"/><path d="M51.417,16.198c1.164,0,2.107-0.945,2.107-2.105c0-1.162-0.943-2.104-2.107-2.104c-1.16,0-2.104,0.941-2.104,2.104    C49.313,15.252,50.257,16.198,51.417,16.198z"/><path d="M51.417,11.147c1.164,0,2.107-0.945,2.107-2.105c0-1.164-0.943-2.104-2.107-2.104c-1.16,0-2.104,0.939-2.104,2.104    C49.313,10.202,50.257,11.147,51.417,11.147z"/></g></g><text x="0" y="106" fill="#000000" font-size="5px" font-weight="bold" font-family="'Helvetica Neue', Helvetica, Arial-Unicode, Arial, Sans-serif">Created by BomSymbols</text><text x="0" y="111" fill="#000000" font-size="5px" font-weight="bold" font-family="'Helvetica Neue', Helvetica, Arial-Unicode, Arial, Sans-serif">from the Noun Project</text></svg>