<svg xmlns="http://www.w3.org/2000/svg" xmlns:xlink="http://www.w3.org/1999/xlink" version="1.1" x="0px" y="0px" viewBox="0 0 4000 5000" style="enable-background:new 0 0 4000 4000;" xml:space="preserve"><g><path d="M2076.5,2183.2c4.4,4.4,10.2,6.6,15.9,6.6c5.8,0,11.5-2.2,15.9-6.6l319.7-319.6c4.2-4.2,6.6-10,6.6-15.9   s-2.4-11.7-6.6-15.9l-391.5-391.5c-8.8-8.8-23.1-8.8-31.9,0s-8.8,23.1,0,31.9l375.5,375.5l-303.8,303.6   C2067.7,2160.1,2067.7,2174.4,2076.5,2183.2z"/><path d="M2752.4,1507.3c-8.8-8.8-23.1-8.8-31.9,0l-174,174l-241-241c-8.8-8.8-23.1-8.8-31.9,0c-8.8,8.8-8.8,23.1,0,31.9l257,257   c4.2,4.2,10,6.6,15.9,6.6c6,0,11.7-2.4,15.9-6.6l190-190C2761.2,1530.4,2761.2,1516.1,2752.4,1507.3z"/><path d="M2159.1,2400.9l114.6-115.7l275.2,275.2c4.4,4.4,10.2,6.6,15.9,6.6s11.5-2.2,15.9-6.6c8.8-8.8,8.8-23.1,0-31.9   l-291.2-291.2c-4.2-4.2-10-6.6-15.9-6.6c0,0,0,0-0.1,0c-6,0-11.7,2.4-16,6.7l-130.6,131.7c-8.8,8.8-8.7,23.1,0.1,31.9   C2136.1,2409.8,2150.4,2409.7,2159.1,2400.9z"/><path d="M2752.3,1770.3c-8.8-8.8-23.1-8.7-31.9,0.2l-390,393.7c-8.7,8.8-8.7,23,0.1,31.8l294.9,294.8c4.4,4.4,10.2,6.6,15.9,6.6   c5.8,0,11.5-2.2,15.9-6.6c8.8-8.8,8.8-23.1,0-31.9l-279-278.9l374.2-377.7C2761.2,1793.3,2761.1,1779,2752.3,1770.3z"/><path d="M2011.7,1252h131.4h647.1v1463.2c0,12.4,10.1,22.5,22.5,22.5s22.5-10.1,22.5-22.5v-148.3H3032   c52.7,0,102.3-20.5,139.5-57.7s57.7-86.7,57.7-139.4V1112.9c0-52.7-20.5-102.2-57.7-139.4s-86.7-57.7-139.4-57.7h-887.3   c-9.2-0.6-18.3,4.5-22.2,13.5c-1.4,3.3-2,6.8-1.8,10.2V1207h-108.9c-12.4,0-22.5,10.1-22.5,22.5S1999.3,1252,2011.7,1252z    M2165.7,972.6l538.7,234.3h-538.7V972.6L2165.7,972.6z M3139.5,1005.3c28.7,28.7,44.5,66.9,44.5,107.6v1256.9   c0,40.7-15.8,78.9-44.5,107.6c-28.7,28.7-66.9,44.5-107.6,44.5h-196.6V1230c0-0.9,0-1.8-0.1-2.7c0-0.1,0-0.2,0-0.2   c0-0.3-0.1-0.5-0.1-0.8c0-0.2-0.1-0.4-0.1-0.6c0-0.1-0.1-0.3-0.1-0.4c-0.1-0.3-0.1-0.5-0.2-0.8c0-0.1,0-0.1,0-0.2   c-0.8-3.6-2.5-6.8-4.8-9.5l0,0c-0.2-0.3-0.5-0.5-0.7-0.8l0,0c-0.2-0.3-0.5-0.5-0.8-0.8l0,0c-2.1-2-4.6-3.6-7.4-4.7l-569.4-247.7   H3032C3072.6,960.8,3110.8,976.6,3139.5,1005.3z"/><path d="M1231.6,1252c12.4,0,22.5-10.1,22.5-22.5s-10.1-22.5-22.5-22.5h-206.9c-73.9,0-143.4,28.8-195.7,81   c-52.3,52.3-81,121.7-81,195.7v1060.8c0,12.4,10.1,22.5,22.5,22.5s22.5-10.1,22.5-22.5V1483.6c0-61.9,24.1-120,67.8-163.8   c43.8-43.8,101.9-67.8,163.8-67.8L1231.6,1252L1231.6,1252z"/><path d="M1238.1,1526c8.8-8.8,8.8-23.1,0-31.9s-23.1-8.8-31.9,0l-154.4,154.4l-0.1,0.1c-0.2,0.2-0.3,0.3-0.5,0.5   c-0.3,0.3-0.6,0.7-0.9,1c-0.1,0.1-0.1,0.2-0.2,0.2c-0.4,0.5-0.8,1-1.2,1.6c-0.1,0.1-0.1,0.2-0.2,0.2c-0.4,0.6-0.7,1.1-1,1.7   c0,0.1-0.1,0.2-0.1,0.2c-0.3,0.6-0.6,1.2-0.8,1.8c0,0.1-0.1,0.1-0.1,0.2c-0.2,0.6-0.5,1.2-0.7,1.9c0,0.1,0,0.1-0.1,0.2   c-0.2,0.6-0.3,1.3-0.5,1.9c0,0.1,0,0.1,0,0.2c-0.1,0.6-0.2,1.3-0.3,2c0,0.1,0,0.1,0,0.2c-0.1,0.7-0.1,1.3-0.1,2c0,0.1,0,0.1,0,0.2   c0,0.6,0,1.3,0.1,1.9c0,0.1,0,0.2,0,0.2c0.1,0.6,0.2,1.3,0.3,1.9c0,0.1,0,0.2,0,0.2c0.1,0.6,0.3,1.3,0.5,1.9c0,0.1,0.1,0.2,0.1,0.2   c0.2,0.6,0.4,1.2,0.6,1.8c0,0.1,0.1,0.1,0.1,0.2c0.3,0.6,0.5,1.2,0.8,1.8c0,0.1,0.1,0.1,0.1,0.2c0.3,0.6,0.7,1.2,1,1.7   c0,0.1,0.1,0.1,0.1,0.2c0.4,0.6,0.8,1.1,1.2,1.7c0,0.1,0.1,0.1,0.1,0.2c0.4,0.5,0.9,1,1.4,1.5c0,0,0,0.1,0.1,0.1l0.1,0.1   c0.2,0.2,0.3,0.3,0.5,0.5l225.8,210.2c4.3,4,9.9,6,15.4,6c6,0,12.1-2.4,16.5-7.2c8.5-9.1,8-23.4-1.1-31.8L1100,1663.8L1238.1,1526z   "/><path d="M989.3,1774.7l220.6,220.8c4.4,4.4,10.2,6.6,15.9,6.6c5.8,0,11.5-2.2,15.9-6.6c8.8-8.8,8.8-23.1,0-31.9L1005.2,1727   c-0.4-0.4-0.7-0.7-1.1-1c-0.2-0.2-0.4-0.4-0.6-0.5c-0.3-0.3-0.7-0.5-1.1-0.8c-0.3-0.2-0.5-0.4-0.8-0.6s-0.7-0.4-1.1-0.6   c-0.3-0.2-0.6-0.3-0.8-0.5c-0.3-0.2-0.7-0.3-1.1-0.5c-0.3-0.1-0.6-0.3-0.9-0.4c-0.3-0.1-0.7-0.2-1-0.3c-0.4-0.1-0.7-0.3-1.1-0.4   c-0.3-0.1-0.6-0.2-0.9-0.2c-0.4-0.1-0.8-0.2-1.2-0.3c-0.3-0.1-0.6-0.1-0.9-0.1c-0.4-0.1-0.8-0.1-1.2-0.2c-0.3,0-0.6,0-0.9,0   c-0.4,0-0.8-0.1-1.3-0.1c-0.3,0-0.6,0-0.9,0c-0.4,0-0.8,0-1.3,0.1c-0.3,0-0.6,0.1-0.9,0.1c-0.4,0.1-0.8,0.1-1.3,0.2   c-0.3,0.1-0.6,0.1-0.9,0.2c-0.4,0.1-0.8,0.2-1.2,0.3c-0.3,0.1-0.6,0.2-0.9,0.3c-0.4,0.1-0.8,0.3-1.2,0.4c-0.3,0.1-0.6,0.3-0.9,0.4   c-0.4,0.2-0.7,0.3-1.1,0.5c-0.3,0.2-0.7,0.4-1,0.6s-0.6,0.3-0.9,0.5c-0.4,0.2-0.7,0.5-1.1,0.8c-0.2,0.2-0.5,0.3-0.7,0.5   c-0.4,0.3-0.8,0.7-1.2,1.1c-0.2,0.2-0.4,0.3-0.5,0.5l0,0l0,0l0,0l-80,79.9c-8.8,8.8-8.8,23.1,0,31.9c4.4,4.4,10.2,6.6,16,6.6   s11.5-2.2,15.9-6.6L989.3,1774.7z"/><path d="M909.3,1688.4c5.8,0,11.5-2.2,15.9-6.6l316.6-316.4c8.8-8.8,8.8-23.1,0-31.9s-23.1-8.8-31.9,0l-316.6,316.4   c-8.8,8.8-8.8,23.1,0,31.9C897.7,1686.2,903.5,1688.4,909.3,1688.4z"/><path d="M1410.5,1659.6h117.1L1155.9,2536c-8.9,20.4-7,43.7,5.2,62.4s32.8,29.9,55.2,29.9c24.9,0,47.4-13.8,58.7-36l377.7-740.9   l381.5,742.1c11,21.5,32.9,34.8,57,34.8c21.9,0,42-11,53.8-29.3s13.5-41.1,4.6-61L1767,1659.6h127.6c6.2,0,12-2.5,16.3-7   c4.3-4.4,6.5-10.4,6.2-16.6l-30-657.8c-0.6-12-10.5-21.5-22.5-21.5H1782V637.1c0-12.4-10.1-22.5-22.5-22.5h-213.8   c-12.4,0-22.5,10.1-22.5,22.5v319.7h-82.6c-12,0-22,9.5-22.5,21.5l-30,657.8c-0.3,6.1,2,12.1,6.2,16.6   C1398.4,1657.1,1404.3,1659.6,1410.5,1659.6z M2108.3,2556.2c0,0.1,0.1,0.2,0.1,0.3c3.8,8.5,0.3,15.5-1.3,18.1   c-1.7,2.6-6.6,8.7-16,8.7c-7.2,0-13.6-4-16.9-10.3l-401.6-781.3c-3.9-7.5-11.6-12.2-20-12.2l0,0c-8.5,0-16.2,4.8-20,12.3   l-397.7,780.1c-3.6,7-10.7,11.4-18.6,11.4c-7.2,0-13.5-3.4-17.5-9.5c-3.9-6-4.5-13.2-1.6-19.8c0-0.1,0.1-0.2,0.1-0.3l379.3-894.2   h141.3L2108.3,2556.2z M1568.2,659.6h168.7v297.1h-168.7V659.6L1568.2,659.6z M1462,1001.8h82.4c0.4,0,0.8,0,1.2,0   c0.4,0,0.8,0,1.2,0h211.4c0.4,0,0.8,0,1.2,0c0.4,0,0.8,0,1.2,0h82.4l28,612.8h-136.8c-1.1-0.1-2.2-0.1-3.2,0h-167.7   c-1.1-0.1-2.1-0.1-3.2,0h-126L1462,1001.8z"/><path d="M1652.6,1451.7c79.1,0,143.5-64.4,143.5-143.5s-64.4-143.5-143.5-143.5s-143.5,64.4-143.5,143.5   C1509,1387.3,1573.4,1451.7,1652.6,1451.7z M1652.6,1209.8c54.3,0,98.4,44.2,98.4,98.4c0,54.3-44.2,98.4-98.4,98.4   s-98.4-44.2-98.4-98.4S1598.3,1209.8,1652.6,1209.8z"/><path d="M3229.5,3262.5h-655.3v-432.2h655.3c12.4,0,22.5-10.1,22.5-22.5s-10.1-22.5-22.5-22.5h-955.8c-12.4,0-22.5,10.1-22.5,22.5   v58.9h-78.3c-9.9-25.1-33-74-74.5-107.1c-23.2-18.5-49-29.7-76.8-33.3c-42.7-5.4-102.1,4-176.8,27.9c-30.4,9.9-56.4,19.8-74,26.9   H1510c-56.2,0-102,45.8-102,102.1c0,21,6.4,40.6,17.3,56.9h-90.1L1085,2761.6c-1-0.8-1.8-1.4-2.4-1.9l-0.1-0.1   c-20.1-16.8-45.5-25.2-71.6-23.6c-26.4,1.6-50.8,13.3-68.5,32.8c-18.4,20-27.8,46-26.6,73.1c1.2,27.2,13,52.3,33.1,70.6   c0.6,0.5,1.1,1,1.8,1.4l244,181.1c17.1,12.7,35.7,22,55.3,27.7l351.6,182.5c1.4,0.7,2.8,1.3,4.3,1.7c15.2,4.3,31.1,6.5,47.1,6.5   c8.6,0,17.3-0.6,25.9-1.9c1.6-0.2,3.1-0.6,4.6-1.2l374.5-140.6c39.6-5.5,79.6-5.7,119-0.4l74.4,10.1V3285   c0,12.4,10.1,22.5,22.5,22.5h955.8c12.4,0,22.5-10.1,22.5-22.5C3252,3272.6,3241.9,3262.5,3229.5,3262.5z M2182.7,3124.6   c-44.3-5.9-89.4-5.7-133.9,0.8c-1.6,0.2-3.2,0.6-4.7,1.2l-374.4,140.6c-16.6,2.2-33.7,1.1-49.7-3.1l-351.5-182.5   c-1.4-0.7-2.9-1.3-4.4-1.7c-15.1-4.2-29.5-11.3-42.8-21.1l-242.9-180.3c-10.7-10.2-17-23.8-17.7-38.6c-0.7-15.1,4.6-29.5,14.9-40.7   c20.5-22.5,54.8-24.7,78.1-4.9c0.2,0.1,0.3,0.3,0.5,0.4c0.4,0.3,0.8,0.6,1.2,1l0.1,0.1c0.7,0.6,1.4,1.2,2.2,1.8l257,183.4   c3.8,2.7,8.4,4.2,13.1,4.2h176.5l0,0l0,0h190.1c12.4,0,22.5-10.1,22.5-22.5s-10.1-22.5-22.5-22.5h-189.3   c-29.4-2.2-52.3-27.1-52.3-56.9c0-31.5,25.5-57,56.9-57H1775c2.9,0,5.8-0.6,8.5-1.7c16.8-6.9,43.5-17.2,74.9-27.4   c67.3-21.6,121.8-30.6,157.3-26.1c19.4,2.5,37.7,10.5,54.3,23.8c45.5,36.3,64.9,100.2,65.1,100.8c2.8,9.6,11.6,16.2,21.6,16.2h94.2   v222.2L2182.7,3124.6z M2296.2,2830.2h232.9v432.2h-232.9V2830.2z"/><path d="M2406.9,2874.7c-39,0-70.8,31.8-70.8,70.8s31.8,70.8,70.8,70.8s70.8-31.8,70.8-70.8   C2477.7,2906.4,2446,2874.7,2406.9,2874.7z M2406.9,2971.2c-14.2,0-25.7-11.5-25.7-25.7s11.5-25.7,25.7-25.7s25.7,11.6,25.7,25.7   C2432.7,2959.7,2421.1,2971.2,2406.9,2971.2z"/></g><text x="0" y="4015" fill="#000000" font-size="5px" font-weight="bold" font-family="'Helvetica Neue', Helvetica, Arial-Unicode, Arial, Sans-serif">Created by Nesterenko Ruslan</text><text x="0" y="4020" fill="#000000" font-size="5px" font-weight="bold" font-family="'Helvetica Neue', Helvetica, Arial-Unicode, Arial, Sans-serif">from the Noun Project</text></svg>