<svg xmlns="http://www.w3.org/2000/svg" xmlns:xlink="http://www.w3.org/1999/xlink" version="1.1" x="0px" y="0px" viewBox="0 0 512 640" style="enable-background:new 0 0 512 512;" xml:space="preserve"><g><path d="M91.483,294.321c-2.066-4.391-9.237-4.391-11.304,0c-0.046,0.129-5.819,12.504-12.322,21.756   c-9.055,12.899-17.897,26.459-17.897,37.99c0,22.151,16.089,40.17,35.871,40.17s35.886-18.019,35.886-40.17   c0-11.562-8.858-25.106-17.913-37.998C97.302,306.824,91.528,294.45,91.483,294.321z M85.831,381.794   c-12.914,0-23.412-12.435-23.412-27.727c0-8.569,9.784-22.516,15.618-30.842c2.887-4.095,5.576-8.645,7.794-12.648   c2.218,4.003,4.907,8.554,7.794,12.648c5.469,7.779,15.634,22.25,15.634,30.842C109.258,369.359,98.745,381.794,85.831,381.794z"/><path d="M84.342,362.643c-3.707-1.535-6.092-5.15-6.092-9.215c0-3.434-2.796-6.222-6.229-6.222s-6.229,2.788-6.229,6.222   c0,9.108,5.409,17.236,13.78,20.716c0.775,0.319,1.58,0.471,2.385,0.471c2.431,0,4.755-1.443,5.743-3.836   C89.021,367.604,87.517,363.965,84.342,362.643z"/><path d="M460.657,449.023H441.21v-38.02c0-3.434-2.796-6.222-6.229-6.222h-1.61V201.377c0-40.223-32.726-72.949-72.957-72.949   h-42.051c-4.591-10.52-15.073-17.905-27.259-17.905h-2.637l-7.937-22.888c-0.866-2.507-3.236-4.186-5.88-4.186h-8.402V64.914h3.054   c3.434,0,6.229-2.788,6.229-6.222l8.812-0.349c4.831,5.538,11.805,8.759,19.234,8.759c14.084,0,25.555-11.463,25.555-25.555   c0-14.084-11.471-25.547-25.555-25.547c-7.429,0-14.403,3.221-19.234,8.759h-8.812v-0.866c0-3.434-2.796-6.222-6.229-6.222H219.56   c-3.434,0-6.229,2.788-6.229,6.222v0.866h-8.311C200.204,19.221,193.23,16,185.786,16c-14.084,0-25.555,11.463-25.555,25.547   c0,14.092,11.471,25.555,25.555,25.555c7.445,0,14.418-3.221,19.234-8.759h8.311v0.349c0,3.434,2.796,6.222,6.229,6.222h3.555   v18.535h-5.014c-2.644,0-5.014,1.679-5.88,4.186l-7.937,22.888h-6.025c-12.186,0-22.668,7.385-27.259,17.905h-43.236   c-42.859,0-77.743,34.868-77.743,77.727v36.092c-2.78,0.622-4.907,2.989-4.907,5.955v26.854c0,3.434,2.796,6.222,6.229,6.222   h76.725c3.434,0,6.229-2.788,6.229-6.222v-26.854c0-2.965-2.127-5.333-4.907-5.955v-25.662c0-4.862,3.95-8.812,8.812-8.812h32.642   c4.516,10.688,15.108,18.209,27.416,18.209h92.844c12.307,0,22.9-7.521,27.416-18.209h29.786c3.16,0,5.713,2.56,5.713,5.713   v191.295h-2.112c-3.434,0-6.229,2.788-6.229,6.222v38.02h-22.774c-3.434,0-6.229,2.788-6.229,6.222v34.534   c0,3.434,2.796,6.222,6.229,6.222h137.755c3.434,0,6.229-2.788,6.229-6.222v-34.534   C466.886,451.811,464.091,449.023,460.657,449.023z M121.838,268.834H57.572v-14.411h64.266V268.834z M168.511,195.331h-30.31   c-11.729,0-21.27,9.534-21.27,21.255v25.395H62.479v-35.825c0-36,29.277-65.284,65.284-65.284h40.748V195.331z M219.56,45.9   h-17.609c-2.097,0-4.057,1.056-5.211,2.811c-2.431,3.722-6.533,5.948-10.954,5.948c-7.232,0-13.096-5.88-13.096-13.112   c0-7.224,5.865-13.104,13.096-13.104c4.421,0,8.523,2.226,10.954,5.948c1.155,1.755,3.115,2.811,5.211,2.811h17.609   c3.434,0,6.229-2.788,6.229-6.222v-0.866h37.284v0.866c0,3.434,2.796,6.222,6.229,6.222h18.11c2.097,0,4.041-1.048,5.196-2.803   c2.461-3.73,6.563-5.956,10.969-5.956c7.232,0,13.096,5.88,13.096,13.104c0,7.232-5.865,13.112-13.096,13.112   c-4.406,0-8.508-2.226-10.969-5.956c-1.155-1.755-3.099-2.803-5.196-2.803h-18.11c-3.434,0-6.229,2.788-6.229,6.222l-37.284,0.349   v-0.349C225.789,48.688,222.993,45.9,219.56,45.9z M253.789,64.914v18.535h-18.216V64.914H253.789z M222.522,95.892h47.706   l5.059,14.631h-57.825L222.522,95.892z M308.393,196.242c0,9.534-7.748,17.297-17.29,17.297h-92.844   c-9.541,0-17.29-7.764-17.29-17.297v-55.979c0-9.534,7.748-17.297,17.29-17.297h10.453h75.327h7.065   c9.541,0,17.29,7.764,17.29,17.297V196.242z M348.305,195.331h-27.454v-54.459h39.563c33.364,0,60.499,27.142,60.499,60.506   v203.404h-54.437V213.486C366.476,203.474,358.317,195.331,348.305,195.331z M428.752,417.224v31.799h-70.617v-31.799H428.752z    M454.428,483.557H329.132v-22.091h22.774h83.075h19.447V483.557z"/></g><text x="0" y="527" fill="#000000" font-size="5px" font-weight="bold" font-family="'Helvetica Neue', Helvetica, Arial-Unicode, Arial, Sans-serif">Created by Shakeel Ch.</text><text x="0" y="532" fill="#000000" font-size="5px" font-weight="bold" font-family="'Helvetica Neue', Helvetica, Arial-Unicode, Arial, Sans-serif">from the Noun Project</text></svg>