<svg xmlns="http://www.w3.org/2000/svg" xmlns:xlink="http://www.w3.org/1999/xlink" version="1.1" x="0px" y="0px" viewBox="0 0 64 80" style="enable-background:new 0 0 64 64;" xml:space="preserve"><g><path d="M16,21C9.935,21,5,25.935,5,32s4.935,11,11,11s11-4.935,11-11S22.065,21,16,21z M16,41c-4.963,0-9-4.038-9-9s4.037-9,9-9   s9,4.038,9,9S20.963,41,16,41z"/><rect x="21" y="31" width="2" height="2"/><rect x="17" y="31" width="2" height="2"/><rect x="13" y="31" width="2" height="2"/><rect x="9" y="31" width="2" height="2"/><path d="M61.171,26.701C62.303,25.457,63,23.81,63,22c0-3.86-3.141-7-7-7c-0.595,0-1.179,0.074-1.747,0.221   C52.734,11.511,49.066,9,45,9c-0.441,0-0.877,0.04-1.309,0.097C41.398,4.155,36.505,1,31,1c-6.253,0-11.656,4.077-13.409,10.009   c-4.28,0.196-7.867,3.462-8.488,7.685C4.296,21.196,1,26.216,1,32c0,6.884,4.667,12.685,11,14.442V59c0,2.206,1.794,4,4,4   s4-1.794,4-4V46.442C26.333,44.685,31,38.884,31,32c0-1.027-0.105-2.03-0.302-3H37v1.498c0,1.331,0.851,2.505,2.116,2.921   c0.302,0.099,0.537,0.316,0.647,0.598c0.051,0.131,0.104,0.26,0.16,0.389c0.118,0.272,0.104,0.591-0.038,0.873   c-0.601,1.188-0.372,2.619,0.569,3.561l0.705,0.704c0.941,0.941,2.372,1.171,3.561,0.57c0.282-0.143,0.6-0.156,0.874-0.038   c0.129,0.056,0.26,0.11,0.391,0.161c0.279,0.108,0.496,0.345,0.596,0.647C46.996,42.15,48.17,43,49.502,43h0.996   c1.332,0,2.506-0.851,2.921-2.116c0.1-0.302,0.316-0.538,0.594-0.646c0.133-0.051,0.264-0.105,0.394-0.162   c0.273-0.119,0.591-0.105,0.873,0.038c1.188,0.601,2.62,0.37,3.561-0.57l0.705-0.705c0.941-0.942,1.17-2.373,0.569-3.56   c-0.143-0.283-0.156-0.601-0.037-0.875c0.055-0.128,0.108-0.257,0.16-0.39c0.109-0.28,0.345-0.497,0.648-0.596   C62.15,33.003,63,31.83,63,30.498v-0.996C63,28.276,62.274,27.191,61.171,26.701z M18,59c0,1.103-0.897,2-2,2s-2-0.897-2-2V46.851   C14.656,46.939,15.32,47,16,47s1.344-0.061,2-0.149V59z M16,45C8.832,45,3,39.168,3,32s5.832-13,13-13s13,5.832,13,13   S23.168,45,16,45z M25,20.028V15h2v6.836C26.389,21.175,25.72,20.571,25,20.028z M61,30.498c0,0.465-0.298,0.875-0.739,1.021   c-0.873,0.286-1.561,0.932-1.886,1.769c-0.043,0.108-0.087,0.216-0.133,0.322c-0.356,0.819-0.324,1.756,0.087,2.572   c0.21,0.415,0.13,0.916-0.198,1.244l-0.705,0.705c-0.329,0.329-0.827,0.409-1.244,0.199c-0.815-0.411-1.751-0.443-2.571-0.087   c-0.105,0.045-0.211,0.089-0.32,0.132c-0.839,0.326-1.484,1.014-1.771,1.887C51.374,40.703,50.964,41,50.498,41h-0.996   c-0.466,0-0.875-0.297-1.021-0.741c-0.287-0.872-0.933-1.559-1.773-1.886c-0.107-0.042-0.213-0.085-0.317-0.13   c-0.818-0.356-1.758-0.325-2.572,0.087c-0.417,0.21-0.916,0.129-1.244-0.2l-0.705-0.704c-0.328-0.329-0.408-0.829-0.198-1.245   c0.411-0.815,0.443-1.753,0.088-2.571c-0.047-0.106-0.091-0.214-0.133-0.321c-0.326-0.839-1.015-1.484-1.887-1.771   C39.297,31.374,39,30.963,39,30.498V29h4.085C43.037,29.33,43,29.662,43,30c0,3.86,3.141,7,7,7s7-3.14,7-7   c0-0.36-0.036-0.715-0.09-1.066c0.916-0.12,1.777-0.415,2.547-0.855c0.244,0.17,0.514,0.307,0.804,0.402   C60.703,28.626,61,29.037,61,29.502V30.498z M50,33c1.654,0,3-1.346,3-3c0-0.352-0.072-0.686-0.184-1h2.073   C54.956,29.328,55,29.66,55,30c0,2.757-2.243,5-5,5s-5-2.243-5-5c0-0.34,0.044-0.672,0.111-1h2.073C47.072,29.314,47,29.648,47,30   C47,31.654,48.346,33,50,33z M49,30c0-0.551,0.448-1,1-1s1,0.449,1,1s-0.448,1-1,1S49,30.551,49,30z M56,27H30.125   c-0.245-0.69-0.529-1.361-0.868-2H55v-2h-2v-4h-6v4h-2v-8h-6v8h-2V7h-6v16h-2V13h-6v5.744C20.908,17.635,18.528,17,16,17   c-1.61,0-3.159,0.262-4.614,0.733C12.34,14.979,14.973,13,18,13c0.054,0,0.106,0.004,0.159,0.008l0.981,0.046l0.19-0.807   C20.611,6.803,25.409,3,31,3c4.583,0,8.673,2.55,10.704,6.579c-0.804,0.281-1.579,0.646-2.295,1.129l1.119,1.657   C41.851,11.472,43.397,11,45,11c3.533,0,6.689,2.37,7.677,5.764l0.315,1.085l1.038-0.445C54.656,17.136,55.318,17,56,17   c2.757,0,5,2.243,5,5S58.757,27,56,27z M33,23V9h2v14H33z M41,23v-6h2v6H41z M49,23v-2h2v2H49z"/><rect x="33" y="31" width="2" height="2"/><path d="M56,46c-1.302,0-2.402,0.839-2.816,2H43v-4h-8v-9h-2v15h-5.184c-0.414-1.161-1.514-2-2.816-2c-1.654,0-3,1.346-3,3   s1.346,3,3,3c1.302,0,2.402-0.839,2.816-2H33v5.184c-1.161,0.414-2,1.514-2,2.816c0,1.654,1.346,3,3,3s3-1.346,3-3   c0-1.302-0.839-2.402-2-2.816V46h6v6.184c-1.161,0.414-2,1.514-2,2.816c0,1.654,1.346,3,3,3s3-1.346,3-3   c0-1.302-0.839-2.402-2-2.816V50h6v4.184c-1.161,0.414-2,1.514-2,2.816c0,1.654,1.346,3,3,3s3-1.346,3-3   c0-1.302-0.839-2.402-2-2.816V50h2.184c0.414,1.161,1.514,2,2.816,2c1.654,0,3-1.346,3-3S57.654,46,56,46z M25,52   c-0.552,0-1-0.449-1-1s0.448-1,1-1s1,0.449,1,1S25.552,52,25,52z M34,61c-0.552,0-1-0.449-1-1s0.448-1,1-1s1,0.449,1,1   S34.552,61,34,61z M42,56c-0.552,0-1-0.449-1-1s0.448-1,1-1s1,0.449,1,1S42.552,56,42,56z M50,58c-0.552,0-1-0.449-1-1s0.448-1,1-1   s1,0.449,1,1S50.552,58,50,58z M56,50c-0.552,0-1-0.449-1-1s0.448-1,1-1s1,0.449,1,1S56.552,50,56,50z"/></g><text x="0" y="79" fill="#000000" font-size="5px" font-weight="bold" font-family="'Helvetica Neue', Helvetica, Arial-Unicode, Arial, Sans-serif">Created by Eucalyp</text><text x="0" y="84" fill="#000000" font-size="5px" font-weight="bold" font-family="'Helvetica Neue', Helvetica, Arial-Unicode, Arial, Sans-serif">from the Noun Project</text></svg>