<svg xmlns="http://www.w3.org/2000/svg" data-name="Layer 1" viewBox="0 0 128 160" x="0px" y="0px"><title>94 Web Icon Set 46 expanded</title><path d="M47.729,60.752a9.28145,9.28145,0,0,0,5.55225,5.29785c.27686.07813.40332.11328.51709,1.77637A7.80965,7.80965,0,0,0,54.4873,71a6.87983,6.87983,0,0,0,3.03125,2.81348,4.4066,4.4066,0,0,1,2.53711,2.90527,6.35641,6.35641,0,0,0,3.313,3.917,5.99273,5.99273,0,0,0,3.36084.26953,7.86342,7.86342,0,0,1,.98047-.084c1.12109.02734,2.19727.93555,3.44336,1.9873a17.49463,17.49463,0,0,0,2.86523,2.09668l.02045.00964,7.6485-2.54327c.02991-.07623.06366-.1571.0918-.23a3.51436,3.51436,0,0,1,.44434-.9248,3.9676,3.9676,0,0,1,1.38574-.25781,5.41521,5.41521,0,0,0,3.97168-1.58984,5.51946,5.51946,0,0,0,1.09082-2.43848,31.90849,31.90849,0,0,0,.97742-6.1048,16.91822,16.91822,0,0,1-4.31384,2.59174c-.15546.85779-.34906,1.72552-.5542,2.5863a3.81881,3.81881,0,0,1-.22754.752,4.39,4.39,0,0,1-1.28809.21777,6.01645,6.01645,0,0,0-3.64648,1.207,5.83282,5.83282,0,0,0-1.57031,2.51855,3.62888,3.62888,0,0,1-.45117.93945,1.84159,1.84159,0,0,1-1.66016-.24316A14.39146,14.39146,0,0,1,73.73242,79.751c-1.59277-1.34375-3.39844-2.86719-5.92578-2.92773-.05176-.002-.10254-.002-.15234-.002a11.19659,11.19659,0,0,0-1.43262.11621,3.42691,3.42691,0,0,1-1.23437.04,2.41081,2.41081,0,0,1-1.11914-1.46973,8.26138,8.26138,0,0,0-4.36377-5.167c-.81787-.46777-1.22168-.71387-1.47021-1.19043a5.38582,5.38582,0,0,1-.24512-1.59766c-.10693-1.56543-.30664-4.47949-3.42822-5.35449a5.354,5.354,0,0,1-2.97168-3.05957,7.68328,7.68328,0,0,1,.28027-6.68262c.84863-1.68164.26318-3.57129-.25293-5.23926a14.72327,14.72327,0,0,1-.44141-1.63965c.19434-.0332.2749-.0332.27051-.03613.04.0127.07617.02832.11328.04395a4.66026,4.66026,0,0,0,2.80957.2334,4.14078,4.14078,0,0,0,1.27594-.46991,5.53276,5.53276,0,0,1-2.46649-3.42816l-.00464-.00037a1.17726,1.17726,0,0,1-.131-.0498,4.49189,4.49189,0,0,0-3.001-.14355,3.55022,3.55022,0,0,0-2.41357,1.667c-.90137,1.55664-.3335,3.38965.16748,5.00684a8.04343,8.04343,0,0,1,.50293,2.25488A11.6415,11.6415,0,0,0,47.729,60.752Z"/><path d="M100.55084,80.21942c-.613.99121-1.26721,1.95349-1.94586,2.89728l3.53223,1.928c.93292-1.32281,1.81183-2.68646,2.62549-4.09265A19.3163,19.3163,0,0,1,100.55084,80.21942Z"/><path d="M57.96973,98.67578a1.77394,1.77394,0,0,0,.21094-.05762L89.4248,88.22949a8.23334,8.23334,0,0,1,2.77734.50684l26.83691,14.64844a2.00021,2.00021,0,1,0,1.916-3.51172L93.92285,85.11816a2.04407,2.04407,0,0,0-.40625-.167,10.72848,10.72848,0,0,0-4.873-.65137,2.05678,2.05678,0,0,0-.30566.07617L57.01758,94.79a12.19244,12.19244,0,0,0-7.50684,5.26361L29.52539,83.95215A8.1779,8.1779,0,0,0,17.709,85.23633a8.74812,8.74812,0,0,0,1.44385,11.86914L55.12158,126.543a6.08864,6.08864,0,0,0,5.59766,1.23047c.04541-.0127.09082-.02734.13525-.043L93.333,116.06836l.41211-.13574c1.76465-.582,2.97949-.92773,3.79785-.43457l11.44434,6.72363a2,2,0,1,0,2.02539-3.44922l-11.42187-6.71c-2.43262-1.47266-5.02051-.61328-7.10156.07227L59.58105,123.9375a2.12626,2.12626,0,0,1-1.89893-.46777L21.71338,94.03223a4.69746,4.69746,0,0,1-.835-6.35547,4.17928,4.17928,0,0,1,6.09863-.6416l21.313,17.17224-.001.01819a9.18933,9.18933,0,0,0,3.12793,6.915,9.03546,9.03546,0,0,0,7.1582,2.16992,1.98588,1.98588,0,0,0,.31982-.06934l19.48-5.93652a1.99995,1.99995,0,0,0-1.166-3.82617l-19.31055,5.88477a4.98833,4.98833,0,0,1-3.8457-1.23145,5.18737,5.18737,0,0,1-1.76367-3.90625C52.28906,101.87891,54.89063,99.33691,57.96973,98.67578Z"/><path d="M123.83887,54.53711a43.202,43.202,0,0,0-2.05859-8.76562,31.12611,31.12611,0,0,1-1.918-9.44727c.02832-9.60449,3.20313-14.09277,3.22559-14.125a1.9999,1.9999,0,0,0-2.24121-3.09375c-1.01367.34277-24.89355,8.64063-31.46387,29.98535-.19769.64227-.36328,1.274-.5174,1.902a21.80545,21.80545,0,0,0-2.08221-2.69885C76.56934,36.97461,59.53564,38.4043,58.81592,38.47461A2.00421,2.00421,0,0,0,58.022,42.21c.03027.01758,3.06006,1.80957,5.69434,7.36035a16.87035,16.87035,0,0,1,1.313,5.61035,25.08262,25.08262,0,0,0,1.18359,5.8291c2.292,6.42871,6.5332,9.86621,11.94922,9.86621a15.15,15.15,0,0,0,4.20605-.63379,12.71737,12.71737,0,0,0,7.15424-5.21771C92.12671,71.23651,98.41791,77,105.87793,77a14.5389,14.5389,0,0,0,1.98047-.13574C116.5332,75.67773,125.28613,69.18848,123.83887,54.53711ZM85.07562,64.17657c-.57422-5.51373-4.68744-11.32361-9.84027-13.33868a1.99973,1.99973,0,1,0-1.457,3.72461c4.29492,1.67969,7.85449,7.40234,7.3252,11.77539-.00415.03412.00037.067-.002.10089-5.32422,1.47565-8.96722-.733-11.121-6.77277A21.60037,21.60037,0,0,1,69.002,54.7168a20.50919,20.50919,0,0,0-1.67187-6.86133,27.7679,27.7679,0,0,0-3.27637-5.3584c5.35938.38867,13.97852,2.07031,19.76074,8.47656,2.25488,2.499,3.457,5.02441,3.57227,7.50684A7.51793,7.51793,0,0,1,85.07562,64.17657Zm22.43591,8.69562C102.50244,67.1767,103.217,53.40039,108.79,48.29a1.99958,1.99958,0,0,0-2.70312-2.94727c-6.38818,5.85712-7.81274,18.94592-3.64673,27.0871a16.02175,16.02175,0,0,1-9.24976-8.99628c-1.53906-3.70312-1.53418-8.13281.01465-13.166C97.5,36.31445,110.50488,28.29688,117.52344,24.877A37.525,37.525,0,0,0,115.8623,36.3125a34.68694,34.68694,0,0,0,2.09961,10.65137,39.47294,39.47294,0,0,1,1.89648,7.96582C121.26691,69.19092,111.85284,72.22961,107.51154,72.87219Z"/><path d="M4,54a53.67956,53.67956,0,0,0,9.466,30.49011A11.85533,11.85533,0,0,1,14.54,82.7959a12.56314,12.56314,0,0,1,1.50952-1.62512,49.8787,49.8787,0,0,1,.35138-54.87341c1.66809.166,2.76886,1.69269,4.1806,3.939,1.34814,2.14355,2.87451,4.56348,5.70508,4.30273,1.78711-.17676,4.01514.10059,5.40234,3.75391a4.09412,4.09412,0,0,1-.30615,1.64063l-.04639.15039A7.79887,7.79887,0,0,0,33.895,48.51855c1.062.82324,2.03662,2.14746,1.58594,3.39648a6.49881,6.49881,0,0,1-.771,1.30957,10.82827,10.82827,0,0,0-1.1084,1.88965,10.69653,10.69653,0,0,0-.30176,5.98242,9.7568,9.7568,0,0,1,.12793,3.4707A9.05559,9.05559,0,0,1,29.812,69.68066c-3.09656,2.16168-3.74377,5.38458-3.80835,8.46863a12.26966,12.26966,0,0,1,4.00671,1.32233c-.06641-3.1275.21466-5.20117,2.09167-6.51166a12.97362,12.97362,0,0,0,5.21631-7.46484,12.99491,12.99491,0,0,0-.06152-4.98145,7.45427,7.45427,0,0,1,.02148-3.8252,7.63559,7.63559,0,0,1,.728-1.19727,9.68275,9.68275,0,0,0,1.2373-2.21875c.98633-2.73242-.12451-5.76562-2.89844-7.916a3.782,3.782,0,0,1-1.18408-4.10156l.04443-.14355a6.3633,6.3633,0,0,0,.22266-4.23828c-1.7085-4.498-5.0918-6.73926-9.52344-6.31641l-.01172.001c-.38379,0-1.4624-1.71484-1.92578-2.45117-1.15588-1.838-2.62762-4.1734-5.04163-5.24915A50.24641,50.24641,0,0,1,38.89343,7.80225c.78851,5.14069,5.42438,5.21277,8.30286,5.24756A9.44708,9.44708,0,0,1,51.127,13.584c1.30176.71973,1.56592,1.66211,1.95605,3.40234.51025,2.27637,1.2793,5.70605,6.85645,6.334a8.38117,8.38117,0,0,1,.52393,1.35254,7.97122,7.97122,0,0,0,1.66211,3.22363c2.16455,2.22461,5.45264,2.08105,7.8042,1.20215a21.69278,21.69278,0,0,0,3.22559-1.60937,22.273,22.273,0,0,1,2.25-1.17969c1.14844-.49023,2.68555-.77344,3.64258-.14941a8.54669,8.54669,0,0,1,.19141,1.35645,7.23106,7.23106,0,0,0,1.3418,4.20605,7.724,7.724,0,0,0,3.5625,2,6.00929,6.00929,0,0,1,2.25879,1.09863A7.60308,7.60308,0,0,1,87.459,38.07813a20.4691,20.4691,0,0,0,.7735,3.27844,43.30752,43.30752,0,0,1,2.98224-4.9873,9.64181,9.64181,0,0,0-1.60046-3.93176,8.13661,8.13661,0,0,0-4.15137-2.49121,7.04326,7.04326,0,0,1-1.82812-.80664,5.06432,5.06432,0,0,1-.41309-1.99023c-.125-1.35645-.28125-3.04395-1.61328-4.07324-1.96875-1.51758-4.874-1.68457-7.77441-.44434a25.46367,25.46367,0,0,0-2.665,1.38574,18.41845,18.41845,0,0,1-2.63574,1.333c-1.16406.43555-2.77344.54688-3.54-.24316a5.7084,5.7084,0,0,1-.73-1.68457c-.499-1.51758-1.25391-3.8125-3.7583-4.06543-2.85547-.28809-3.0498-1.1543-3.519-3.24609-.4165-1.8584-.9873-4.4043-3.92285-6.02734A12.20986,12.20986,0,0,0,47.24365,9.0498c-3.6535-.04382-4.43878-.27246-4.475-2.66962A49.93634,49.93634,0,0,1,99.93408,26.8194c1.043-.89429,2.092-1.73315,3.1366-2.51392A53.97932,53.97932,0,0,0,4,54Z"/><text x="0" y="143" fill="#000000" font-size="5px" font-weight="bold" font-family="'Helvetica Neue', Helvetica, Arial-Unicode, Arial, Sans-serif">Created by Creative Mahira</text><text x="0" y="148" fill="#000000" font-size="5px" font-weight="bold" font-family="'Helvetica Neue', Helvetica, Arial-Unicode, Arial, Sans-serif">from the Noun Project</text></svg>